<svg width="48" height="48" viewBox="0 0 48 48" fill="none" xmlns="http://www.w3.org/2000/svg">
<path d="M4 0.5H44C45.933 0.5 47.5 2.067 47.5 4V44C47.5 45.933 45.933 47.5 44 47.5H4C2.067 47.5 0.5 45.933 0.5 44V4C0.5 2.067 2.067 0.5 4 0.5Z" stroke="#D6D6D6"/>
<path d="M36 8H12C9.79086 8 8 9.79086 8 12V36C8 38.2091 9.79086 40 12 40H36C38.2091 40 40 38.2091 40 36V12C40 9.79086 38.2091 8 36 8Z" fill="#EEEEEE"/>
<path d="M30 15H18C16.3431 15 15 16.3431 15 18V30C15 31.6569 16.3431 33 18 33H30C31.6569 33 33 31.6569 33 30V18C33 16.3431 31.6569 15 30 15Z" fill="white"/>
</svg>
