<svg width="48" height="48" viewBox="0 0 48 48" fill="none" xmlns="http://www.w3.org/2000/svg">
<path d="M4 0.5H44C45.933 0.5 47.5 2.067 47.5 4V44C47.5 45.933 45.933 47.5 44 47.5H4C2.067 47.5 0.5 45.933 0.5 44V4C0.5 2.067 2.067 0.5 4 0.5Z" stroke="#BBBBBB"/>
<path fill-rule="evenodd" clip-rule="evenodd" d="M35 10H13C11.3431 10 10 11.3431 10 13V35C10 36.6569 11.3431 38 13 38H35C36.6569 38 38 36.6569 38 35V13C38 11.3431 36.6569 10 35 10ZM31 15H26V33H31V15ZM31 14H32V15V33V34H31H26H25V33V15V14H26H31ZM28 30.99H30.984V30.007H28V30.99ZM30.984 28.989H29V28.007H30.984V28.989ZM29 26.991H30.984V26.007H29V26.991ZM30.984 24.991H28V24.006H30.984V24.991ZM29 22.9901H30.984V22.0081H29V22.9901ZM30.984 20.99H29V20.007H30.984V20.99ZM29 18.9921H30.984V18.0081H29V18.9921ZM30.984 16.9911H28V16.0081H30.984V16.9911ZM16 18H22V29H16V18ZM16 30H22L20.4472 33.1056C20.1732 33.6537 19.6129 34 19 34C18.3871 34 17.8268 33.6537 17.5528 33.1056L16 30ZM18 14C16.8954 14 16 14.8954 16 16V17H22V16C22 14.8954 21.1046 14 20 14H18Z" fill="#BBBBBB"/>
</svg>
