<svg width="32" height="33" viewBox="0 0 32 33" fill="#ffffff" xmlns="http://www.w3.org/2000/svg">
<path fill-rule="evenodd" clip-rule="evenodd" d="M9.5 4.35967C9.5 3.67565 10.103 3 11 3H21C21.897 3 22.5 3.67565 22.5 4.35967V7.21935H9.5V4.35967ZM6.5 7.21935V4.35967C6.5 1.88498 8.58325 0 11 0H21C23.4168 0 25.5 1.88498 25.5 4.35967V7.21935H28C30.2091 7.21935 32 8.92644 32 11.0322V28.1903C32 30.2961 30.2091 32.0031 28 32.0031H4C1.79086 32.0031 0 30.2961 0 28.1903V11.0322C0 8.92644 1.79086 7.21935 4 7.21935H6.5Z" fill="#ffffff"/>
</svg>
