<svg width="16" height="16" viewBox="0 0 16 16" fill="white" xmlns="http://www.w3.org/2000/svg">
<path fill-rule="evenodd" clip-rule="evenodd" d="M9.99377 0V1H14.3C15.2389 1 16 1.76112 16 2.7V8.3C16 9.23888 15.2389 10 14.3 10H11.986L12.9821 16H10.9899L10.491 13H5.511L5.01329 16H3.0211L4.0172 10H1.7C0.761116 10 0 9.23888 0 8.3V2.7C0 1.76112 0.761116 1 1.7 1H6.00939V0H9.99377ZM9.99377 10H8.99768V12H10.325L9.99377 10ZM7.00548 10H6.00939L5.677 12H7.00548V10ZM6.50772 3.98819C6.02856 3.98799 5.58553 4.24396 5.34499 4.66L3.0211 8H9.99377L7.66988 4.661C7.4297 4.24475 6.98689 3.9884 6.50772 3.98819ZM11.5656 6.099C10.9887 5.27014 9.97683 4.86397 8.98971 5.065C9.36623 5.367 11.209 7.711 11.5656 8H12.9821L11.5656 6.099Z" fill="#ffffff"/>
</svg>
