<svg width="24" height="23" viewBox="0 0 24 23" fill="none" xmlns="http://www.w3.org/2000/svg">
<path d="M22.5 18H1.5C0.671573 18 0 18.6716 0 19.5C0 20.3284 0.671573 21 1.5 21H22.5C23.3284 21 24 20.3284 24 19.5C24 18.6716 23.3284 18 22.5 18Z" fill="#888888"/>
<path d="M7.5 23C9.433 23 11 21.433 11 19.5C11 17.567 9.433 16 7.5 16C5.567 16 4 17.567 4 19.5C4 21.433 5.567 23 7.5 23Z" fill="#888888"/>
<path d="M22.5 10H1.5C0.671573 10 0 10.6716 0 11.5C0 12.3284 0.671573 13 1.5 13H22.5C23.3284 13 24 12.3284 24 11.5C24 10.6716 23.3284 10 22.5 10Z" fill="#888888"/>
<path d="M16.5 15C18.433 15 20 13.433 20 11.5C20 9.567 18.433 8 16.5 8C14.567 8 13 9.567 13 11.5C13 13.433 14.567 15 16.5 15Z" fill="#888888"/>
<path d="M22.5 2H1.5C0.671573 2 0 2.67157 0 3.5C0 4.32843 0.671573 5 1.5 5H22.5C23.3284 5 24 4.32843 24 3.5C24 2.67157 23.3284 2 22.5 2Z" fill="#888888"/>
<path d="M7.5 7C9.433 7 11 5.433 11 3.5C11 1.567 9.433 0 7.5 0C5.567 0 4 1.567 4 3.5C4 5.433 5.567 7 7.5 7Z" fill="#888888"/>
</svg>
