<svg width="16" height="16" viewBox="0 0 16 16" fill="none" xmlns="http://www.w3.org/2000/svg">
<path fill-rule="evenodd" clip-rule="evenodd" d="M10 0H12C13.1038 0.768829 14 1.35788 15 2L14 5H12V16H8V10C8 8.89542 7.10455 8 6 8H3V5H1L0 2C0.368591 1.75546 0.694641 1.54169 1.00183 1.3403C1.67523 0.898804 2.258 0.516724 3 0H5C5 0 5.02832 2.10526 7.5 2.10526C9.9054 2.10526 10 0 10 0Z" fill="#888888"/>
<path d="M14.8333 6H14.1667C14.0746 6 14 6.08954 14 6.2V7.8C14 7.91046 14.0746 8 14.1667 8H14.8333C14.9254 8 15 7.91046 15 7.8V6.2C15 6.08954 14.9254 6 14.8333 6Z" fill="#888888"/>
<path d="M15.3571 8H13.6429C13.2878 8 13 8.28277 13 8.63158V15.3684C13 15.7172 13.2878 16 13.6429 16H15.3571C15.7122 16 16 15.7172 16 15.3684V8.63158C16 8.28277 15.7122 8 15.3571 8Z" fill="#888888"/>
<path d="M2 9H7V15C7 15.5523 6.55228 16 6 16H3C2.44772 16 2 15.5523 2 15V9Z" fill="#888888"/>
<path fill-rule="evenodd" clip-rule="evenodd" d="M1.7 10C0.761116 10 0 10.7611 0 11.7V13.3C0 14.2389 0.761116 15 1.7 15H2V14H1.8C1.35817 14 1 13.6418 1 13.2V11.8C1 11.3582 1.35817 11 1.8 11H2V10H1.7Z" fill="#888888"/>
</svg>
