<svg width="48" height="48" viewBox="0 0 48 48" fill="none" xmlns="http://www.w3.org/2000/svg">
<path fill-rule="evenodd" clip-rule="evenodd" d="M4 1H44C45.6569 1 47 2.34315 47 4V44C47 45.6569 45.6569 47 44 47H4C2.34315 47 1 45.6569 1 44V4C1 2.34315 2.34315 1 4 1ZM44 0H4C1.79086 0 0 1.79086 0 4V44C0 46.2091 1.79086 48 4 48H44C46.2091 48 48 46.2091 48 44V4C48 1.79086 46.2091 0 44 0ZM13 14H35C36.6569 14 38 15.3431 38 17V31C38 32.6569 36.6569 34 35 34H13C11.3431 34 10 32.6569 10 31V17C10 15.3431 11.3431 14 13 14Z" fill="#BBBBBB"/>
</svg>
