<svg width="48" height="48" viewBox="0 0 48 48" fill="none" xmlns="http://www.w3.org/2000/svg">
<path fill-rule="evenodd" clip-rule="evenodd" d="M4 1H44C45.6569 1 47 2.34314 47 4V44C47 45.6569 45.6569 47 44 47H4C2.34314 47 1 45.6569 1 44V4C1 2.34314 2.34314 1 4 1ZM44 0H4C1.79086 0 0 1.79083 0 4V44C0 46.2092 1.79086 48 4 48H44C46.2091 48 48 46.2092 48 44V4C48 1.79083 46.2091 0 44 0ZM17 10H31C32.6569 10 34 11.3431 34 13V35C34 36.6569 32.6569 38 31 38H17C15.3431 38 14 36.6569 14 35V13C14 11.3431 15.3431 10 17 10Z" fill="#BBBBBB"/>
</svg>
