<svg width="48" height="48" viewBox="0 0 48 48" fill="none" xmlns="http://www.w3.org/2000/svg">
<path fill-rule="evenodd" clip-rule="evenodd" d="M4 1H44C45.6569 1 47 2.34314 47 4V44C47 45.6569 45.6569 47 44 47H4C2.34314 47 1 45.6569 1 44V4C1 2.34314 2.34314 1 4 1ZM44 0H4C1.79086 0 0 1.79083 0 4V44C0 46.2092 1.79086 48 4 48H44C46.2091 48 48 46.2092 48 44V4C48 1.79083 46.2091 0 44 0ZM13 10H35C36.6569 10 38 11.3431 38 13V35C38 36.6569 36.6569 38 35 38H13C11.3431 38 10 36.6569 10 35V13C10 11.3431 11.3431 10 13 10Z" fill="#BBBBBB"/>
</svg>
