<svg width="113" height="28" viewBox="0 0 113 28" fill="none" xmlns="http://www.w3.org/2000/svg">
<path d="M99 0H14C6.26801 0 0 6.26801 0 14C0 21.732 6.26801 28 14 28H99C106.732 28 113 21.732 113 14C113 6.26801 106.732 0 99 0Z" fill="url(#paint0_linear_194_201)"/>
<path d="M15.8066 15.7969C15.8066 15.5664 15.7578 15.3711 15.6602 15.2109C15.5664 15.0469 15.3887 14.8965 15.127 14.7598C14.8652 14.6191 14.4883 14.4727 13.9961 14.3203C13.5938 14.1992 13.2207 14.0605 12.877 13.9043C12.5371 13.748 12.2402 13.5684 11.9863 13.3652C11.7324 13.1582 11.5332 12.9199 11.3887 12.6504C11.248 12.377 11.1777 12.0625 11.1777 11.707C11.1777 11.2422 11.3066 10.834 11.5645 10.4824C11.8223 10.127 12.1797 9.84961 12.6367 9.65039C13.0938 9.45117 13.623 9.35156 14.2246 9.35156C14.8652 9.35156 15.416 9.46875 15.877 9.70312C16.3379 9.93359 16.6914 10.2461 16.9375 10.6406C17.1875 11.0352 17.3125 11.4746 17.3125 11.959H15.8008C15.8008 11.6895 15.7422 11.4492 15.625 11.2383C15.5117 11.0234 15.3379 10.8574 15.1035 10.7402C14.8691 10.6191 14.5703 10.5586 14.207 10.5586C13.8672 10.5586 13.584 10.6094 13.3574 10.7109C13.1309 10.8125 12.9629 10.9492 12.8535 11.1211C12.7441 11.293 12.6895 11.4883 12.6895 11.707C12.6895 11.9141 12.7559 12.0977 12.8887 12.2578C13.0215 12.418 13.2227 12.5645 13.4922 12.6973C13.7617 12.8262 14.0977 12.9512 14.5 13.0723C15.1328 13.2559 15.6582 13.4707 16.0762 13.7168C16.4941 13.9629 16.8047 14.2539 17.0078 14.5898C17.2148 14.9258 17.3184 15.3242 17.3184 15.7852C17.3184 16.2656 17.1934 16.6816 16.9434 17.0332C16.6934 17.3809 16.3398 17.6484 15.8828 17.8359C15.4258 18.0234 14.8887 18.1172 14.2715 18.1172C13.8613 18.1172 13.457 18.0625 13.0586 17.9531C12.6602 17.8398 12.2988 17.6719 11.9746 17.4492C11.6543 17.2227 11.3965 16.9395 11.2012 16.5996C11.0098 16.2598 10.9141 15.8594 10.9141 15.3984H12.4258C12.4258 15.6719 12.4727 15.9043 12.5664 16.0957C12.6602 16.2871 12.791 16.4453 12.959 16.5703C13.127 16.6914 13.3223 16.7793 13.5449 16.834C13.7715 16.8887 14.0137 16.916 14.2715 16.916C14.6113 16.916 14.8945 16.8691 15.1211 16.7754C15.3477 16.6777 15.5176 16.5449 15.6309 16.377C15.748 16.209 15.8066 16.0156 15.8066 15.7969ZM21.2852 18.1172C20.6562 18.1172 20.1133 17.9824 19.6562 17.7129C19.1992 17.4395 18.8477 17.0723 18.6016 16.6113C18.3555 16.1465 18.2324 15.627 18.2324 15.0527V14.8125C18.2324 14.1523 18.3574 13.5781 18.6074 13.0898C18.8574 12.5977 19.1992 12.2168 19.6328 11.9473C20.0703 11.6777 20.5645 11.543 21.1152 11.543C21.7246 11.543 22.2305 11.6758 22.6328 11.9414C23.0352 12.2031 23.3359 12.5684 23.5352 13.0371C23.7344 13.502 23.834 14.041 23.834 14.6543V15.2812H18.9297V14.2324H22.3984V14.1211C22.3906 13.875 22.3438 13.6445 22.2578 13.4297C22.1719 13.2148 22.0352 13.041 21.8477 12.9082C21.6641 12.7754 21.418 12.709 21.1094 12.709C20.8008 12.709 20.541 12.7969 20.3301 12.9727C20.1191 13.1445 19.959 13.3887 19.8496 13.7051C19.7402 14.0176 19.6855 14.3867 19.6855 14.8125V15.0527C19.6855 15.4121 19.752 15.7344 19.8848 16.0195C20.0176 16.3047 20.2109 16.5312 20.4648 16.6992C20.7188 16.8633 21.0215 16.9453 21.373 16.9453C21.7129 16.9453 22.0137 16.8789 22.2754 16.7461C22.541 16.6133 22.7695 16.4219 22.9609 16.1719L23.7227 16.9336C23.5234 17.2344 23.2227 17.5078 22.8203 17.7539C22.4219 17.9961 21.9102 18.1172 21.2852 18.1172ZM26.4707 18H25.0176V9H26.4707V18ZM29.5527 18H28.0996V9H29.5527V18ZM33.8066 14.7715C33.8066 14.1543 33.9238 13.6035 34.1582 13.1191C34.3926 12.6348 34.7285 12.252 35.166 11.9707C35.6074 11.6855 36.1367 11.543 36.7539 11.543C37.3789 11.543 37.9121 11.6855 38.3535 11.9707C38.7949 12.252 39.1309 12.6348 39.3613 13.1191C39.5957 13.6035 39.7129 14.1543 39.7129 14.7715V14.8945C39.7129 15.5078 39.5957 16.0586 39.3613 16.5469C39.1309 17.0312 38.7949 17.4141 38.3535 17.6953C37.916 17.9766 37.3867 18.1172 36.7656 18.1172C36.1445 18.1172 35.6133 17.9766 35.1719 17.6953C34.7305 17.4141 34.3926 17.0312 34.1582 16.5469C33.9238 16.0586 33.8066 15.5078 33.8066 14.8945V14.7715ZM35.2598 14.8945C35.2598 15.2695 35.3125 15.6133 35.418 15.9258C35.5234 16.2344 35.6855 16.4824 35.9043 16.6699C36.127 16.8574 36.4141 16.9512 36.7656 16.9512C37.1133 16.9512 37.3965 16.8574 37.6152 16.6699C37.8379 16.4824 38 16.2344 38.1016 15.9258C38.207 15.6133 38.2598 15.2695 38.2598 14.8945V14.7715C38.2598 14.4004 38.207 14.0586 38.1016 13.7461C38 13.4336 37.8379 13.1836 37.6152 12.9961C37.3926 12.8047 37.1055 12.709 36.7539 12.709C36.4062 12.709 36.1211 12.8047 35.8984 12.9961C35.6797 13.1836 35.5176 13.4336 35.4121 13.7461C35.3105 14.0586 35.2598 14.4004 35.2598 14.7715V14.8945ZM42.332 18H40.8789V11.6602H42.2441L42.332 13.0137V18ZM41.6055 14.6074C41.6094 13.9941 41.7168 13.459 41.9277 13.002C42.1387 12.541 42.4336 12.1836 42.8125 11.9297C43.1914 11.6719 43.6328 11.543 44.1367 11.543C44.5469 11.543 44.9023 11.6211 45.2031 11.7773C45.5039 11.9297 45.7383 12.1797 45.9062 12.5273C46.0742 12.8711 46.1582 13.334 46.1582 13.916V18H44.6992V13.9043C44.6992 13.6113 44.6562 13.3789 44.5703 13.207C44.4883 13.0352 44.3633 12.9141 44.1953 12.8438C44.0312 12.7695 43.8301 12.7324 43.5918 12.7324C43.3496 12.7324 43.1348 12.7812 42.9473 12.8789C42.7637 12.9727 42.6055 13.1055 42.4727 13.2773C42.3438 13.4492 42.2441 13.6484 42.1738 13.875C42.1074 14.1016 42.0742 14.3438 42.0742 14.6016L41.6055 14.6074ZM51.5371 18H49.9492L53.1602 9.46875H54.168L54.0684 10.6816L51.5371 18ZM53.6289 10.6816L53.5176 9.46875H54.5312L57.7539 18H56.166L53.6289 10.6816ZM56.0664 16.0488H51.4199V14.8301H56.0664V16.0488ZM60.0215 18H58.5684V11.6602H59.9512L60.0215 12.9023V18ZM61.9316 12.9961C61.8418 12.9805 61.7461 12.9688 61.6445 12.9609C61.5469 12.9531 61.4492 12.9492 61.3516 12.9492C61.0312 12.9492 60.7637 13.0078 60.5488 13.125C60.3379 13.2383 60.1777 13.4023 60.0684 13.6172C59.959 13.8281 59.8945 14.0781 59.875 14.3672L59.541 14.373C59.541 13.8379 59.6113 13.3574 59.752 12.9316C59.8926 12.5059 60.1035 12.168 60.3848 11.918C60.666 11.668 61.0176 11.543 61.4395 11.543C61.5215 11.543 61.6133 11.5508 61.7148 11.5664C61.8164 11.582 61.8926 11.5996 61.9434 11.6191L61.9316 12.9961ZM66.0508 12.7324H62.4531V11.6602H66.0508V12.7324ZM64.9258 10.1074V16.2129C64.9258 16.4082 64.9531 16.5566 65.0078 16.6582C65.0625 16.7559 65.1406 16.8223 65.2422 16.8574C65.3438 16.8926 65.4609 16.9102 65.5938 16.9102C65.6914 16.9102 65.7852 16.9043 65.875 16.8926C65.9648 16.8809 66.0371 16.8691 66.0918 16.8574V17.9766C65.9746 18.0156 65.8379 18.0488 65.6816 18.0762C65.5293 18.1035 65.3496 18.1172 65.1426 18.1172C64.8184 18.1172 64.5293 18.0586 64.2754 17.9414C64.0254 17.8242 63.8281 17.6348 63.6836 17.373C63.543 17.1074 63.4727 16.7559 63.4727 16.3184V10.1074H64.9258ZM68.5586 18H67.1055V11.6602H68.4707L68.5586 13.0137V18ZM67.832 14.6074C67.8359 13.9941 67.9434 13.459 68.1543 13.002C68.3652 12.541 68.6602 12.1836 69.0391 11.9297C69.418 11.6719 69.8594 11.543 70.3633 11.543C70.7734 11.543 71.1289 11.6211 71.4297 11.7773C71.7305 11.9297 71.9648 12.1797 72.1328 12.5273C72.3008 12.8711 72.3848 13.334 72.3848 13.916V18H70.9258V13.9043C70.9258 13.6113 70.8828 13.3789 70.7969 13.207C70.7148 13.0352 70.5898 12.9141 70.4219 12.8438C70.2578 12.7695 70.0566 12.7324 69.8184 12.7324C69.5762 12.7324 69.3613 12.7812 69.1738 12.8789C68.9902 12.9727 68.832 13.1055 68.6992 13.2773C68.5703 13.4492 68.4707 13.6484 68.4004 13.875C68.334 14.1016 68.3008 14.3438 68.3008 14.6016L67.832 14.6074ZM77.3535 16.2715C77.3535 16.1387 77.3184 16.0176 77.248 15.9082C77.1816 15.7988 77.0508 15.6973 76.8555 15.6035C76.6602 15.5098 76.373 15.4238 75.9941 15.3457C75.5449 15.252 75.1484 15.127 74.8047 14.9707C74.4648 14.8145 74.1992 14.6133 74.0078 14.3672C73.8203 14.1211 73.7266 13.8203 73.7266 13.4648C73.7266 13.1211 73.8242 12.8047 74.0195 12.5156C74.2188 12.2227 74.502 11.9883 74.8691 11.8125C75.2402 11.6328 75.6777 11.543 76.1816 11.543C76.7129 11.543 77.1699 11.6328 77.5527 11.8125C77.9355 11.9883 78.2285 12.2285 78.4316 12.5332C78.6387 12.834 78.7422 13.1758 78.7422 13.5586H77.2891C77.2891 13.3086 77.1953 13.0898 77.0078 12.9023C76.8242 12.7109 76.5469 12.6152 76.1758 12.6152C75.9453 12.6152 75.752 12.6523 75.5957 12.7266C75.4434 12.8008 75.3281 12.8965 75.25 13.0137C75.1758 13.1309 75.1387 13.2598 75.1387 13.4004C75.1387 13.5371 75.1758 13.6562 75.25 13.7578C75.3281 13.8594 75.459 13.9492 75.6426 14.0273C75.8301 14.1055 76.0918 14.1797 76.4277 14.25C76.9121 14.3516 77.3301 14.4805 77.6816 14.6367C78.0332 14.7891 78.3027 14.9922 78.4902 15.2461C78.6816 15.4961 78.7773 15.8145 78.7773 16.2012C78.7773 16.5723 78.6699 16.9023 78.4551 17.1914C78.2441 17.4805 77.9453 17.707 77.5586 17.8711C77.1758 18.0352 76.7227 18.1172 76.1992 18.1172C75.6172 18.1172 75.127 18.0137 74.7285 17.8066C74.3301 17.5996 74.0273 17.3359 73.8203 17.0156C73.6172 16.6914 73.5156 16.3555 73.5156 16.0078H74.916C74.9316 16.2578 75.002 16.459 75.127 16.6113C75.2559 16.7637 75.416 16.875 75.6074 16.9453C75.8027 17.0117 76.0059 17.0449 76.2168 17.0449C76.4668 17.0449 76.6738 17.0117 76.8379 16.9453C77.0059 16.8789 77.1328 16.7891 77.2188 16.6758C77.3086 16.5586 77.3535 16.4238 77.3535 16.2715ZM82.9375 12.7324H79.3398V11.6602H82.9375V12.7324ZM81.8125 10.1074V16.2129C81.8125 16.4082 81.8398 16.5566 81.8945 16.6582C81.9492 16.7559 82.0273 16.8223 82.1289 16.8574C82.2305 16.8926 82.3477 16.9102 82.4805 16.9102C82.5781 16.9102 82.6719 16.9043 82.7617 16.8926C82.8516 16.8809 82.9238 16.8691 82.9785 16.8574V17.9766C82.8613 18.0156 82.7246 18.0488 82.5684 18.0762C82.416 18.1035 82.2363 18.1172 82.0293 18.1172C81.7051 18.1172 81.416 18.0586 81.1621 17.9414C80.9121 17.8242 80.7148 17.6348 80.5703 17.373C80.4297 17.1074 80.3594 16.7559 80.3594 16.3184V10.1074H81.8125ZM83.5879 14.7715C83.5879 14.1543 83.7051 13.6035 83.9395 13.1191C84.1738 12.6348 84.5098 12.252 84.9473 11.9707C85.3887 11.6855 85.918 11.543 86.5352 11.543C87.1602 11.543 87.6934 11.6855 88.1348 11.9707C88.5762 12.252 88.9121 12.6348 89.1426 13.1191C89.377 13.6035 89.4941 14.1543 89.4941 14.7715V14.8945C89.4941 15.5078 89.377 16.0586 89.1426 16.5469C88.9121 17.0312 88.5762 17.4141 88.1348 17.6953C87.6973 17.9766 87.168 18.1172 86.5469 18.1172C85.9258 18.1172 85.3945 17.9766 84.9531 17.6953C84.5117 17.4141 84.1738 17.0312 83.9395 16.5469C83.7051 16.0586 83.5879 15.5078 83.5879 14.8945V14.7715ZM85.041 14.8945C85.041 15.2695 85.0938 15.6133 85.1992 15.9258C85.3047 16.2344 85.4668 16.4824 85.6855 16.6699C85.9082 16.8574 86.1953 16.9512 86.5469 16.9512C86.8945 16.9512 87.1777 16.8574 87.3965 16.6699C87.6191 16.4824 87.7812 16.2344 87.8828 15.9258C87.9883 15.6133 88.041 15.2695 88.041 14.8945V14.7715C88.041 14.4004 87.9883 14.0586 87.8828 13.7461C87.7812 13.4336 87.6191 13.1836 87.3965 12.9961C87.1738 12.8047 86.8867 12.709 86.5352 12.709C86.1875 12.709 85.9023 12.8047 85.6797 12.9961C85.4609 13.1836 85.2988 13.4336 85.1934 13.7461C85.0918 14.0586 85.041 14.4004 85.041 14.7715V14.8945ZM93.2793 16.9512C93.5059 16.9512 93.7109 16.9062 93.8945 16.8164C94.0781 16.7227 94.2246 16.5957 94.334 16.4355C94.4434 16.2754 94.5039 16.0918 94.5156 15.8848H95.8867C95.875 16.3027 95.752 16.6797 95.5176 17.0156C95.2832 17.3516 94.9727 17.6191 94.5859 17.8184C94.1992 18.0176 93.7676 18.1172 93.291 18.1172C92.6465 18.1172 92.1094 17.9746 91.6797 17.6895C91.2539 17.4004 90.9355 17.0156 90.7246 16.5352C90.5137 16.0508 90.4082 15.5156 90.4082 14.9297V14.7305C90.4082 14.1445 90.5137 13.6113 90.7246 13.1309C90.9355 12.6465 91.2539 12.2617 91.6797 11.9766C92.1094 11.6875 92.6465 11.543 93.291 11.543C93.8027 11.543 94.25 11.6445 94.6328 11.8477C95.0195 12.0469 95.3223 12.3262 95.541 12.6855C95.7598 13.0449 95.875 13.4648 95.8867 13.9453H94.5156C94.5039 13.7188 94.4473 13.5117 94.3457 13.3242C94.248 13.1367 94.1074 12.9883 93.9238 12.8789C93.7441 12.7656 93.5273 12.709 93.2734 12.709C92.8984 12.709 92.6074 12.8066 92.4004 13.002C92.1973 13.1973 92.0566 13.4492 91.9785 13.7578C91.9004 14.0664 91.8613 14.3906 91.8613 14.7305V14.9297C91.8613 15.2734 91.8984 15.5996 91.9727 15.9082C92.0508 16.2168 92.1934 16.4688 92.4004 16.6641C92.6074 16.8555 92.9004 16.9512 93.2793 16.9512ZM98.418 18H96.959V9H98.418V18ZM99.6074 14.7305L98.0781 16.2832L97.6914 15.0703L98.8457 13.6348L100.598 11.6602H102.35L99.6074 14.7305ZM98.8867 15.041L99.8066 14.0332L102.59 18H100.902L98.8867 15.041Z" fill="#333333"/>
<defs>
<linearGradient id="paint0_linear_194_201" x1="0" y1="14" x2="113" y2="14" gradientUnits="userSpaceOnUse">
<stop stop-color="#3DFCDC"/>
<stop offset="0.497" stop-color="#9EFD58"/>
<stop offset="1" stop-color="#FFE82A"/>
</linearGradient>
</defs>
</svg>
