<svg width="15" height="16" viewBox="0 0 15 16" fill="#ffffff" xmlns="http://www.w3.org/2000/svg">
<path fill-rule="evenodd" clip-rule="evenodd" d="M15 3C15 4.65685 13.6569 6 12 6C11.0891 6 10.273 5.59403 9.72283 4.95315L5.93329 7.3679C5.97699 7.57169 6 7.78316 6 8C6 8.21805 5.97674 8.43067 5.93256 8.63551L9.72068 11.0494C10.2709 10.407 11.0879 10 12 10C13.6569 10 15 11.3431 15 13C15 14.6569 13.6569 16 12 16C10.3431 16 9 14.6569 9 13C9 12.9865 9.00009 12.973 9.00027 12.9596L4.88243 10.336C4.3677 10.7513 3.71289 11 3 11C1.34315 11 0 9.65685 0 8C0 6.34315 1.34315 5 3 5C3.71349 5 4.3688 5.24907 4.88373 5.66501L9.00029 3.04226L9 3C9 1.34315 10.3431 0 12 0C13.6569 0 15 1.34315 15 3Z" fill="#ffffff"/>
</svg>
