<svg width="93" height="11" viewBox="0 0 93 11" fill="none" xmlns="http://www.w3.org/2000/svg">
<path d="M8.59222 10.3334H6.52924L3.03802 4.49353V10.3334H0.975037V1.09119H3.03802L6.53558 6.93738V1.09119H8.59222V10.3334Z" fill="#74DF7A"/>
<path d="M16.4125 10.3334H11.5312V8.67029H16.4125V10.3334ZM12.2104 10.3334H10.1411V1.09119H12.2104V10.3334ZM15.7778 6.39148H11.5312V4.77917H15.7778V6.39148ZM16.4125 2.76062H11.5312V1.09119H16.4125V2.76062Z" fill="#D4D156"/>
<path d="M21.4716 1.09119H22.5507L22.9125 2.04968L20.9702 10.3334H19.7958L19.6498 9.24792L21.4716 1.09119ZM20.4179 9.28601L20.183 10.3334H18.8691L16.8632 1.09119H18.9135L20.4179 9.28601ZM25.7753 1.09119H27.8193L25.8198 10.3334H24.4995L24.2836 9.24792L25.7753 1.09119ZM25.058 9.28601L24.893 10.3334H23.7187L21.7636 2.04333L22.1445 1.09119H23.2172L25.058 9.28601Z" fill="#EBBD58"/>
<path d="M33.4814 10.3334H31.2787L34.7065 1.09119H36.0966L35.8871 2.93201L33.4814 10.3334ZM35.4428 2.93201L35.2143 1.09119H36.6235L40.0639 10.3334H37.8613L35.4428 2.93201ZM37.8041 8.54333H32.9355V6.8739H37.8041V8.54333Z" fill="#F5955B"/>
<path d="M44.374 1.09119C45.0891 1.09119 45.7049 1.1991 46.2211 1.41492C46.7374 1.62651 47.1352 1.93966 47.4145 2.35437C47.6938 2.76485 47.8334 3.2769 47.8334 3.8905C47.8334 4.40255 47.7509 4.8363 47.5859 5.19177C47.4208 5.54724 47.1881 5.84135 46.8876 6.0741C46.5872 6.30261 46.2359 6.49304 45.8339 6.64539L45.1738 7.02625H42.1967L42.184 5.35681H44.3676C44.6765 5.35681 44.9347 5.30603 45.142 5.20447C45.3536 5.09867 45.5102 4.95056 45.6118 4.76013C45.7133 4.56547 45.7641 4.33484 45.7641 4.06824C45.7641 3.66199 45.6498 3.34249 45.4213 3.10974C45.1928 2.87699 44.8437 2.76062 44.374 2.76062H42.9203V10.3334H40.8574V1.09119H44.374ZM43.8788 6.23279L46.0688 6.22009L48.1635 10.2382V10.3334H45.9545L43.8788 6.23279Z" fill="#FC6C5E"/>
<path d="M52.7275 1.09119C53.4426 1.09119 54.0584 1.1991 54.5746 1.41492C55.0909 1.62651 55.4887 1.93966 55.768 2.35437C56.0473 2.76485 56.187 3.2769 56.187 3.8905C56.187 4.40255 56.1044 4.8363 55.9394 5.19177C55.7744 5.54724 55.5416 5.84135 55.2411 6.0741C54.9407 6.30261 54.5895 6.49304 54.1874 6.64539L53.5273 7.02625H50.5502L50.5375 5.35681H52.7211C53.03 5.35681 53.2882 5.30603 53.4955 5.20447C53.7071 5.09867 53.8637 4.95056 53.9653 4.76013C54.0668 4.56547 54.1176 4.33484 54.1176 4.06824C54.1176 3.66199 54.0034 3.34249 53.7748 3.10974C53.5463 2.87699 53.1972 2.76062 52.7275 2.76062H51.2739V10.3334H49.2109V1.09119H52.7275ZM52.2324 6.23279L54.4223 6.22009L56.517 10.2382V10.3334H54.308L52.2324 6.23279Z" fill="#FD607E"/>
<path d="M59.748 10.3334H57.6913V1.09119H59.748V10.3334Z" fill="#FD5F9B"/>
<path d="M66.8954 1.09119H69.1933L66.0131 10.3334H64.5087L64.8134 8.22595L66.8954 1.09119ZM65.0229 8.22595L65.3466 10.3334H63.8295L60.6684 1.09119H62.9599L65.0229 8.22595Z" fill="#F75FFD"/>
<path d="M71.4277 10.3334H69.225L72.6528 1.09119H74.0429L73.8334 2.93201L71.4277 10.3334ZM73.3891 2.93201L73.1606 1.09119H74.5698L78.0102 10.3334H75.8076L73.3891 2.93201ZM75.7504 8.54333H70.8818V6.8739H75.7504V8.54333Z" fill="#AD5FFD"/>
<path d="M84.8276 10.3334H80.1874V8.67029H84.8276V10.3334ZM80.8603 10.3334H78.7973V1.09119H80.8603V10.3334Z" fill="#6174FF"/>
<path d="M90.623 7.88953C90.623 7.6864 90.5807 7.51078 90.496 7.36267C90.4114 7.21456 90.2464 7.07279 90.0009 6.93738C89.7555 6.80196 89.3915 6.65808 88.9091 6.50574C88.4944 6.37032 88.0987 6.21798 87.7221 6.04871C87.3497 5.8752 87.0175 5.67419 86.7255 5.44568C86.4378 5.21293 86.2092 4.94421 86.04 4.63953C85.8749 4.33061 85.7924 3.97091 85.7924 3.56042C85.7924 3.03569 85.9405 2.58077 86.2368 2.19568C86.5372 1.80636 86.9477 1.50378 87.4682 1.28796C87.9929 1.07214 88.5917 0.964233 89.2646 0.964233C89.9501 0.964233 90.5489 1.08484 91.061 1.32605C91.573 1.56303 91.9729 1.89734 92.2607 2.32898C92.5484 2.76062 92.6923 3.25997 92.6923 3.82703H90.6293C90.6293 3.58582 90.5786 3.37423 90.477 3.19226C90.3797 3.00606 90.2273 2.86218 90.02 2.76062C89.8126 2.65483 89.5481 2.60193 89.2265 2.60193C88.9218 2.60193 88.6658 2.64636 88.4584 2.73523C88.2553 2.81986 88.103 2.93624 88.0014 3.08435C87.9041 3.22823 87.8554 3.39327 87.8554 3.57947C87.8554 3.7699 87.9231 3.93705 88.0585 4.08093C88.1982 4.22481 88.3992 4.35811 88.6616 4.48083C88.9239 4.59932 89.2392 4.71781 89.6074 4.8363C90.2802 5.04366 90.8452 5.28487 91.3022 5.55994C91.7592 5.835 92.1041 6.16085 92.3369 6.53748C92.5696 6.9141 92.686 7.36056 92.686 7.87683C92.686 8.4185 92.5463 8.88399 92.267 9.27332C91.992 9.65841 91.6005 9.95251 91.0927 10.1556C90.5849 10.3588 89.9882 10.4603 89.3027 10.4603C88.8372 10.4603 88.3801 10.4011 87.9316 10.2826C87.483 10.1599 87.0746 9.97156 86.7065 9.71765C86.3425 9.46375 86.0527 9.14213 85.8369 8.75281C85.621 8.36348 85.5131 7.90222 85.5131 7.36902H87.5825C87.5825 7.63985 87.6205 7.86837 87.6967 8.05457C87.7771 8.24076 87.8914 8.39311 88.0395 8.5116C88.1918 8.62585 88.3738 8.70837 88.5854 8.75916C88.8012 8.80994 89.0403 8.83533 89.3027 8.83533C89.6116 8.83533 89.8613 8.79301 90.0517 8.70837C90.2464 8.62374 90.3902 8.50948 90.4833 8.3656C90.5764 8.22172 90.623 8.06303 90.623 7.88953Z" fill="#54B5FF"/>
</svg>
