<svg width="155" height="15" viewBox="0 0 155 15" fill="none" xmlns="http://www.w3.org/2000/svg">
<path d="M7.84559 1.85009H8.83089L4.84559 13.2697H4.11764L4.47059 11.8501L7.84559 1.85009ZM4.34559 11.8501L4.71323 13.2697H3.97794L0 1.85009H0.985296L4.34559 11.8501ZM10.7394 13.2697H9.86445V4.78343H10.7394V13.2697ZM9.70998 2.32852C9.70998 2.15075 9.76144 2.00173 9.86445 1.88147C9.97227 1.75597 10.1193 1.69324 10.3056 1.69324C10.4967 1.69324 10.6463 1.75597 10.7541 1.88147C10.8619 2.00173 10.9159 2.15075 10.9159 2.32852C10.9159 2.50107 10.8619 2.64748 10.7541 2.76774C10.6463 2.888 10.4967 2.94813 10.3056 2.94813C10.1193 2.94813 9.97227 2.888 9.86445 2.76774C9.76144 2.64748 9.70998 2.50107 9.70998 2.32852ZM17.4568 11.105C17.4568 10.875 17.4004 10.6474 17.2877 10.4227C17.1798 10.1978 16.9739 9.99125 16.67 9.803C16.3661 9.61483 15.9176 9.45274 15.3244 9.3168C14.7362 9.18601 14.2337 9.02391 13.8171 8.83051C13.4053 8.63703 13.0916 8.38865 12.8759 8.08539C12.6602 7.78212 12.5523 7.39781 12.5523 6.93245C12.5523 6.50894 12.6651 6.12463 12.8906 5.77951C13.1161 5.42918 13.4396 5.14945 13.8611 4.94029C14.2827 4.73114 14.7803 4.62657 15.3539 4.62657C15.9665 4.62657 16.4911 4.73637 16.9274 4.95598C17.3686 5.17559 17.7067 5.47624 17.9421 5.85794C18.1773 6.23964 18.295 6.67361 18.295 7.1599H17.4053C17.4053 6.72069 17.2288 6.32069 16.8759 5.95987C16.5229 5.59912 16.0156 5.41872 15.3539 5.41872C14.898 5.41872 14.5279 5.49454 14.2436 5.64618C13.9592 5.79258 13.7509 5.9808 13.6186 6.21091C13.491 6.4357 13.4274 6.66581 13.4274 6.90106C13.4274 7.15209 13.4813 7.37688 13.5891 7.5756C13.697 7.76909 13.9029 7.94422 14.2068 8.10108C14.5107 8.25795 14.9592 8.40958 15.5524 8.55598C16.1945 8.70761 16.7191 8.8932 17.1259 9.11285C17.5376 9.32727 17.8416 9.59391 18.0377 9.91287C18.2386 10.2266 18.3391 10.6082 18.3391 11.0579C18.3391 11.5233 18.2166 11.9364 17.9715 12.2971C17.7313 12.6527 17.3906 12.9298 16.9494 13.1285C16.5131 13.3273 15.996 13.4266 15.3979 13.4266C14.7264 13.4266 14.1578 13.3089 13.6921 13.0736C13.2313 12.8331 12.8808 12.5193 12.6406 12.1325C12.4053 11.7455 12.2876 11.3299 12.2876 10.8854H13.1627C13.1921 11.3299 13.322 11.6801 13.5524 11.9364C13.7877 12.1874 14.072 12.3677 14.4053 12.4776C14.7386 12.5821 15.0696 12.6344 15.3979 12.6344C15.8489 12.6344 16.2264 12.5639 16.5303 12.4226C16.8342 12.2762 17.0646 12.088 17.2215 11.8579C17.3784 11.6227 17.4568 11.3716 17.4568 11.105ZM20.8506 13.2697H19.9756V4.78343H20.8506V13.2697ZM19.8212 2.32852C19.8212 2.15075 19.8726 2.00173 19.9756 1.88147C20.0835 1.75597 20.2305 1.69324 20.4168 1.69324C20.6079 1.69324 20.7575 1.75597 20.8653 1.88147C20.9731 2.00173 21.0271 2.15075 21.0271 2.32852C21.0271 2.50107 20.9731 2.64748 20.8653 2.76774C20.7575 2.888 20.6079 2.94813 20.4168 2.94813C20.2305 2.94813 20.0835 2.888 19.9756 2.76774C19.8726 2.64748 19.8212 2.50107 19.8212 2.32852ZM25.8179 5.55206H21.8253V4.78343H25.8179V5.55206ZM24.1635 2.60304V11.207C24.1635 11.5991 24.2126 11.8971 24.3106 12.1011C24.4086 12.2998 24.536 12.4331 24.6929 12.5011C24.8547 12.5691 25.0263 12.6031 25.2077 12.6031C25.34 12.6031 25.465 12.5952 25.5827 12.5795C25.7052 12.5586 25.8155 12.5403 25.9135 12.5246L25.9503 13.3011C25.8425 13.3377 25.7027 13.3665 25.5312 13.3874C25.3596 13.4135 25.1881 13.4266 25.0165 13.4266C24.6782 13.4266 24.3793 13.3612 24.1194 13.2305C23.8596 13.0946 23.6538 12.8645 23.5018 12.5403C23.3547 12.2108 23.2812 11.7638 23.2812 11.1991V2.60304H24.1635Z" fill="#00D9C6"/>
<path d="M111.534 2.29649H112.481L108.65 13.2758H107.95L108.289 11.9109L111.534 2.29649ZM108.168 11.9109L108.523 13.2758H107.815L103.99 2.29649H104.938L108.168 11.9109ZM116.331 13.4266C115.666 13.4266 115.075 13.2556 114.556 12.9138C114.042 12.5669 113.637 12.0944 113.341 11.4962C113.048 10.8929 112.902 10.2016 112.902 9.42242V9.0982C112.902 8.25869 113.053 7.52977 113.355 6.91142C113.661 6.29306 114.061 5.81548 114.556 5.47867C115.056 5.13682 115.595 4.96591 116.175 4.96591C116.826 4.96591 117.377 5.12677 117.83 5.44851C118.282 5.76522 118.624 6.20509 118.855 6.7681C119.09 7.33121 119.208 7.97462 119.208 8.69852V9.24901H113.419V8.48743H118.36V8.3818C118.35 7.92441 118.263 7.49456 118.098 7.09241C117.938 6.69018 117.698 6.36349 117.377 6.11209C117.056 5.85571 116.656 5.72751 116.175 5.72751C115.7 5.72751 115.278 5.87079 114.91 6.15733C114.542 6.44388 114.258 6.84099 114.055 7.34877C113.852 7.85152 113.75 8.43466 113.75 9.0982V9.42242C113.75 10.0257 113.859 10.5711 114.076 11.0588C114.297 11.5465 114.606 11.9361 115.002 12.2276C115.398 12.5192 115.853 12.665 116.366 12.665C116.819 12.665 117.219 12.577 117.568 12.401C117.917 12.22 118.23 11.9361 118.508 11.5489L119.045 11.9788C118.795 12.3759 118.452 12.7178 118.014 13.0043C117.58 13.2858 117.019 13.4266 116.331 13.4266ZM121.277 13.2758H120.428V5.11671H121.241L121.277 6.85864V13.2758ZM120.711 8.45725C120.749 7.81878 120.897 7.23564 121.157 6.70783C121.416 6.17996 121.766 5.75767 122.21 5.44097C122.657 5.12426 123.174 4.96591 123.758 4.96591C124.271 4.96591 124.71 5.06645 125.072 5.26753C125.436 5.46862 125.713 5.79035 125.907 6.2327C126.105 6.67006 126.204 7.24826 126.204 7.96712V13.2758H125.355V7.95953C125.355 7.39651 125.282 6.95413 125.136 6.63238C124.99 6.31062 124.783 6.08192 124.514 5.9462C124.246 5.81046 123.927 5.74259 123.56 5.74259C123.155 5.74259 122.799 5.83811 122.493 6.02914C122.191 6.21514 121.936 6.45897 121.729 6.7606C121.526 7.0572 121.371 7.37639 121.262 7.71827C121.154 8.06014 121.097 8.3818 121.093 8.68343L120.711 8.45725ZM132.931 1.69324H133.779V13.2758H132.987L132.931 11.6922V1.69324ZM127.621 9.12079C127.621 8.27626 127.742 7.5423 127.982 6.91892C128.223 6.29562 128.562 5.81548 129 5.47867C129.443 5.13682 129.968 4.96591 130.576 4.96591C131.171 4.96591 131.674 5.10415 132.09 5.38064C132.504 5.6521 132.834 6.03417 133.079 6.52683C133.329 7.01449 133.499 7.58757 133.588 8.24607V10.2896C133.513 10.8929 133.352 11.4308 133.107 11.9033C132.862 12.3759 132.528 12.7479 132.104 13.0194C131.684 13.2908 131.171 13.4266 130.562 13.4266C129.959 13.4266 129.436 13.2506 128.993 12.8988C128.555 12.5468 128.215 12.0592 127.975 11.4358C127.74 10.8125 127.621 10.0935 127.621 9.27919V9.12079ZM128.47 9.27919C128.47 9.91263 128.55 10.4832 128.71 10.9909C128.871 11.4937 129.115 11.8958 129.446 12.1975C129.78 12.4941 130.204 12.6423 130.718 12.6423C131.204 12.6423 131.611 12.5443 131.941 12.3483C132.271 12.1472 132.535 11.8832 132.733 11.5565C132.931 11.2247 133.074 10.8602 133.164 10.463V8.11035C133.107 7.84896 133.025 7.57998 132.917 7.3035C132.809 7.02702 132.66 6.77313 132.471 6.54192C132.287 6.30559 132.052 6.1146 131.765 5.96881C131.482 5.82303 131.137 5.75014 130.732 5.75014C130.214 5.75014 129.787 5.89844 129.453 6.19504C129.118 6.49162 128.871 6.89633 128.71 7.40913C128.55 7.91682 128.47 8.48743 128.47 9.12079V9.27919ZM136.512 13.2758H135.67V5.11671H136.512V13.2758ZM135.522 2.75647C135.522 2.58555 135.572 2.44228 135.67 2.32665C135.775 2.206 135.916 2.14568 136.095 2.14568C136.278 2.14568 136.422 2.206 136.526 2.32665C136.63 2.44228 136.681 2.58555 136.681 2.75647C136.681 2.92237 136.63 3.06313 136.526 3.17876C136.422 3.29438 136.278 3.35219 136.095 3.35219C135.916 3.35219 135.775 3.29438 135.67 3.17876C135.572 3.06313 135.522 2.92237 135.522 2.75647ZM139.224 1.69324V11.6922L139.167 13.2758H138.375V1.69324H139.224ZM144.547 9.27919C144.547 10.0935 144.431 10.8125 144.2 11.4358C143.974 12.0592 143.642 12.5468 143.203 12.8988C142.77 13.2506 142.244 13.4266 141.627 13.4266C141.014 13.4266 140.496 13.2908 140.072 13.0194C139.647 12.7479 139.313 12.3759 139.068 11.9033C138.822 11.4308 138.66 10.8929 138.58 10.2896V8.24607C138.674 7.58757 138.844 7.01449 139.089 6.52683C139.339 6.03417 139.671 5.6521 140.086 5.38064C140.5 5.10415 141.01 4.96591 141.613 4.96591C142.235 4.96591 142.763 5.13682 143.196 5.47867C143.635 5.81548 143.969 6.29562 144.2 6.91892C144.431 7.5423 144.547 8.27626 144.547 9.12079V9.27919ZM143.691 9.12079C143.691 8.48743 143.613 7.91682 143.458 7.40913C143.307 6.89633 143.067 6.49162 142.736 6.19504C142.407 5.89844 141.978 5.75014 141.45 5.75014C141.045 5.75014 140.701 5.82303 140.418 5.96881C140.135 6.1146 139.9 6.30559 139.711 6.54192C139.527 6.77313 139.381 7.02702 139.272 7.3035C139.164 7.57998 139.085 7.84896 139.033 8.11035V10.463C139.113 10.8451 139.249 11.202 139.443 11.5338C139.641 11.8656 139.907 12.1346 140.241 12.3407C140.576 12.5418 140.983 12.6423 141.464 12.6423C141.978 12.6423 142.397 12.4941 142.722 12.1975C143.053 11.8958 143.295 11.4937 143.45 10.9909C143.611 10.4832 143.691 9.91263 143.691 9.27919V9.12079ZM146.926 13.2758H146.085V1.69324H146.926V13.2758ZM151.758 13.4266C151.094 13.4266 150.503 13.2556 149.984 12.9138C149.47 12.5669 149.065 12.0944 148.768 11.4962C148.476 10.8929 148.33 10.2016 148.33 9.42242V9.0982C148.33 8.25869 148.481 7.52977 148.782 6.91142C149.089 6.29306 149.489 5.81548 149.984 5.47867C150.484 5.13682 151.023 4.96591 151.603 4.96591C152.253 4.96591 152.804 5.12677 153.257 5.44851C153.709 5.76522 154.051 6.20509 154.282 6.7681C154.518 7.33121 154.636 7.97462 154.636 8.69852V9.24901H148.845V8.48743H153.787V8.3818C153.778 7.92441 153.69 7.49456 153.526 7.09241C153.365 6.69018 153.125 6.36349 152.804 6.11209C152.484 5.85571 152.084 5.72751 151.603 5.72751C151.126 5.72751 150.705 5.87079 150.337 6.15733C149.97 6.44388 149.684 6.84099 149.482 7.34877C149.279 7.85152 149.178 8.43466 149.178 9.0982V9.42242C149.178 10.0257 149.286 10.5711 149.503 11.0588C149.725 11.5465 150.033 11.9361 150.429 12.2276C150.825 12.5192 151.28 12.665 151.794 12.665C152.246 12.665 152.647 12.577 152.995 12.401C153.344 12.22 153.658 11.9361 153.936 11.5489L154.473 11.9788C154.223 12.3759 153.879 12.7178 153.44 13.0043C153.007 13.2858 152.446 13.4266 151.758 13.4266Z" fill="#00C0F1"/>
<path fill-rule="evenodd" clip-rule="evenodd" d="M33.1038 11.185L33.1043 11.1844C33.3121 10.3247 33.7007 9.59955 34.1994 9.11752C33.5271 9.15281 32.7715 8.93307 32.0546 8.48181C31.6811 8.7169 31.318 9.01475 30.9829 9.37228C30.5087 9.87802 30.1465 10.4431 29.9045 11.0152C30.4548 11.2373 31.0856 11.3634 31.756 11.3634C32.23 11.3634 32.6839 11.3004 33.1038 11.185Z" fill="#E52141"/>
<path fill-rule="evenodd" clip-rule="evenodd" d="M30.4496 14.0158L33.1043 11.1844C32.6844 11.2998 32.2305 11.3629 31.7566 11.3629C31.0861 11.3629 30.4555 11.2368 29.9051 11.0148C29.4543 12.0812 29.4218 13.1724 29.8648 13.9511C29.9752 14.1865 30.2916 14.2153 30.4496 14.0158Z" fill="#E93F8F"/>
<path fill-rule="evenodd" clip-rule="evenodd" d="M34.1995 9.11752C34.616 8.71483 35.1094 8.48181 35.6383 8.48181C35.2644 8.88074 34.7609 9.08807 34.1995 9.11752Z" fill="#B52728"/>
<path fill-rule="evenodd" clip-rule="evenodd" d="M38.1726 5.77855L38.172 5.77909C37.366 6.00073 36.6862 6.41528 36.2343 6.94728C36.2674 6.23017 36.0614 5.42413 35.6383 4.65943C35.8588 4.26101 36.1379 3.87382 36.4732 3.51628C36.9473 3.01052 37.4771 2.62415 38.0135 2.36609C38.2217 2.9531 38.3399 3.62584 38.3399 4.34099C38.3399 4.84651 38.2807 5.33073 38.1726 5.77855Z" fill="#04A34D"/>
<path fill-rule="evenodd" clip-rule="evenodd" d="M40.827 2.94688L38.1726 5.77856C38.2808 5.33074 38.34 4.84652 38.34 4.341C38.34 3.62585 38.2216 2.95311 38.0134 2.3661C39.0132 1.88518 40.0363 1.85057 40.7663 2.323C40.987 2.44081 41.0141 2.77841 40.827 2.94688Z" fill="#48BED8"/>
<path fill-rule="evenodd" clip-rule="evenodd" d="M33.1042 11.1848C33.312 10.3249 33.7008 9.59946 34.1996 9.11733C34.7611 9.08778 35.2645 8.88065 35.6384 8.48181L33.1042 11.1848Z" fill="#D52427"/>
<path fill-rule="evenodd" clip-rule="evenodd" d="M38.1725 5.77881C37.3662 6.00043 36.6862 6.41507 36.2342 6.94717C36.2065 7.54608 36.0123 8.08298 35.6383 8.48191L38.1725 5.77881Z" fill="#038A41"/>
<path fill-rule="evenodd" clip-rule="evenodd" d="M36.2343 6.94702C35.8568 7.39131 35.6383 7.91767 35.6383 8.48185C36.0123 8.08283 36.2067 7.54593 36.2343 6.94702Z" fill="#20743B"/>
<path fill-rule="evenodd" clip-rule="evenodd" d="M27.8739 8.48194C27.8739 7.3882 28.6949 6.43666 29.9046 5.94861C30.1465 6.5207 30.5088 7.08564 30.983 7.59139C31.3182 7.949 31.6812 8.24686 32.0547 8.48194C31.6812 8.71703 31.3182 9.01498 30.983 9.3725C30.5088 9.87825 30.1466 10.4433 29.9047 11.0155C28.695 10.5274 27.8739 9.57587 27.8739 8.48194Z" fill="#ED7872"/>
<path fill-rule="evenodd" clip-rule="evenodd" d="M35.6383 8.48193C35.1095 8.48193 34.6162 8.24882 34.1997 7.84631C34.7611 7.87596 35.2644 8.083 35.6383 8.48193Z" fill="#A62927"/>
<path fill-rule="evenodd" clip-rule="evenodd" d="M33.2631 2.36548L33.2642 2.36598L33.2646 2.36617C33.2908 2.37883 33.317 2.39175 33.3432 2.40499L33.3466 2.40671C33.3712 2.41921 33.3959 2.43198 33.4205 2.44498L33.4297 2.44996C33.454 2.46284 33.4782 2.47601 33.5024 2.48944L33.5068 2.49186C33.5322 2.50603 33.5577 2.52047 33.583 2.53522L33.5857 2.53682C33.6117 2.55193 33.6376 2.56731 33.6634 2.58297L33.6642 2.58346L33.6649 2.58382C33.6912 2.59978 33.7174 2.61605 33.7435 2.63264C33.7689 2.64876 33.7942 2.66511 33.8195 2.68182L33.8255 2.68571C33.8499 2.70186 33.8743 2.71837 33.8987 2.73507L33.9031 2.73804C33.9274 2.75478 33.9518 2.77187 33.976 2.78916L33.9793 2.79149L33.9836 2.79457C34.0076 2.81181 34.0317 2.82926 34.0556 2.84705L34.0566 2.84779L34.0571 2.84814L34.059 2.84954C34.0835 2.86784 34.108 2.88637 34.1325 2.90522L34.1372 2.90888C34.1613 2.92749 34.1853 2.94633 34.2092 2.96549L34.2137 2.96903C34.2629 3.00851 34.3118 3.04912 34.3603 3.09086L34.3632 3.09335L34.3676 3.0972C34.3912 3.11756 34.4147 3.13813 34.4381 3.15903L34.4384 3.15923C34.4617 3.18005 34.4848 3.20116 34.508 3.2225L34.5127 3.22693L34.5161 3.23004C34.5392 3.25158 34.5624 3.27334 34.5854 3.29537L34.5877 3.29768C34.6115 3.32049 34.6351 3.34354 34.6587 3.3669L34.6604 3.3687C34.6837 3.39186 34.707 3.41534 34.73 3.43904L34.7331 3.44228C34.7567 3.46649 34.7801 3.49102 34.8033 3.51583C35.1385 3.87336 35.4178 4.2606 35.6382 4.65898C35.2149 5.42383 35.0092 6.22987 35.0423 6.94708C34.5904 6.41498 33.9103 6.00034 33.1041 5.77864C32.9958 5.33066 32.9366 4.84621 32.9366 4.34053C32.9366 3.62539 33.055 2.95249 33.2631 2.36548Z" fill="#B6BA24"/>
<path fill-rule="evenodd" clip-rule="evenodd" d="M30.1476 2.62537C30.8726 1.85194 32.0839 1.79836 33.2628 2.36556C33.0546 2.9526 32.9364 3.62547 32.9364 4.34065C32.9364 4.84632 32.9956 5.33074 33.1038 5.77872C32.6839 5.66324 32.2297 5.60009 31.7556 5.60009C31.0852 5.60009 30.4544 5.72644 29.9041 5.9486C29.3722 4.69101 29.4223 3.39887 30.1476 2.62537Z" fill="#FDD347"/>
<path fill-rule="evenodd" clip-rule="evenodd" d="M35.6382 0.199951C36.6636 0.199951 37.5557 1.0757 38.0132 2.36594C37.4769 2.624 36.9472 3.01057 36.4731 3.51629C36.1379 3.87387 35.8586 4.26106 35.6382 4.65947C35.4178 4.2611 35.1385 3.87387 34.8033 3.51632C34.3292 3.01057 33.7995 2.62419 33.2631 2.36614C33.7206 1.07577 34.6127 0.199951 35.6382 0.199951Z" fill="#B4CF55"/>
<path fill-rule="evenodd" clip-rule="evenodd" d="M33.1042 5.77881C33.9106 6.00046 34.5905 6.41511 35.0425 6.94721C35.0702 7.54603 35.2644 8.08292 35.6384 8.48185C35.2644 8.08292 34.7611 7.87579 34.1996 7.84624C33.7008 7.36411 33.312 6.63881 33.1042 5.77881Z" fill="#BB5829"/>
<path fill-rule="evenodd" clip-rule="evenodd" d="M35.6382 4.65918C36.0614 5.42401 36.2674 6.23011 36.2342 6.94732C35.8568 7.39161 35.6382 7.91778 35.6382 8.48178C35.6382 7.91769 35.4197 7.39161 35.0423 6.94723C35.0092 6.23002 35.215 5.42401 35.6382 4.65918Z" fill="#009843"/>
<path fill-rule="evenodd" clip-rule="evenodd" d="M33.1038 5.77874L33.1043 5.77928C33.312 6.63902 33.7007 7.36413 34.1995 7.84626C33.5271 7.81097 32.7715 8.03062 32.0546 8.48197C31.681 8.24688 31.3181 7.94893 30.9829 7.59141C30.5088 7.08566 30.1465 6.52063 29.9047 5.94844C30.4549 5.72637 31.0857 5.60022 31.756 5.60022C32.23 5.60022 32.684 5.66333 33.1038 5.77874Z" fill="#EB5F25"/>
<path fill-rule="evenodd" clip-rule="evenodd" d="M32.0546 8.48181C32.7716 8.03046 33.5274 7.81071 34.1997 7.8461C34.6163 8.2486 35.1095 8.48181 35.6383 8.48181C35.1095 8.48181 34.6163 8.71492 34.1996 9.11752C33.5274 9.1529 32.7716 8.93316 32.0546 8.48181Z" fill="#DF2125"/>
<path fill-rule="evenodd" clip-rule="evenodd" d="M35.0422 6.94702C35.4198 7.39131 35.6382 7.91767 35.6382 8.48185C35.2642 8.08283 35.0699 7.54593 35.0422 6.94702Z" fill="#52562C"/>
<path fill-rule="evenodd" clip-rule="evenodd" d="M42.7116 4.4281C45.0309 4.4281 46.9112 6.43367 46.9112 8.90772C46.9112 11.3817 45.0309 13.3873 42.7116 13.3873C40.3922 13.3873 38.512 11.3817 38.512 8.90772C38.512 6.43367 40.3922 4.4281 42.7116 4.4281ZM42.8575 6.67007C43.951 6.67007 44.8375 7.67187 44.8375 8.90772C44.8375 10.1436 43.951 11.1454 42.8575 11.1454C41.7639 11.1454 40.8774 10.1436 40.8774 8.90772C40.8774 7.67187 41.7639 6.67007 42.8575 6.67007Z" fill="white"/>
<path d="M46.9218 4.55066H45.1912C45.0161 4.55066 44.874 4.7021 44.874 4.88892V12.9264C44.874 13.1132 45.0161 13.2646 45.1912 13.2646H46.9218C47.0969 13.2646 47.239 13.1132 47.239 12.9264V4.88892C47.239 4.7021 47.0969 4.55066 46.9218 4.55066Z" fill="white"/>
<path fill-rule="evenodd" clip-rule="evenodd" d="M49.9663 4.55066H48.2355C48.0611 4.55066 47.9185 4.70282 47.9185 4.88888V12.9265C47.9185 13.1125 48.0611 13.2646 48.2355 13.2646H49.9663C50.1407 13.2646 50.2833 13.1125 50.2833 12.9265V8.46312C50.4193 7.44702 51.1953 6.66817 52.1324 6.66817C52.2743 6.66817 52.4126 6.68605 52.5455 6.71993C52.704 6.74779 52.8428 6.57773 52.8428 6.40259V4.87338C52.8428 4.72773 52.7404 4.57994 52.6253 4.56759C52.5083 4.55646 52.3899 4.55066 52.2702 4.55066C51.5462 4.55066 50.8676 4.75775 50.2833 5.11914V4.88888C50.2833 4.70282 50.1407 4.55066 49.9663 4.55066Z" fill="white"/>
<path fill-rule="evenodd" clip-rule="evenodd" d="M57.2141 12.9806V11.4295C57.2141 11.2732 57.0715 11.1454 56.8971 11.1454H56.6998C56.3417 11.1454 56.0514 10.8358 56.0514 10.4538V8.62242V6.67011H56.9466C57.0932 6.67011 57.213 6.54231 57.213 6.386V4.83494C57.213 4.67859 57.0932 4.55076 56.9466 4.55076H56.0514V2.67534C56.0514 2.48931 55.9087 2.33716 55.7343 2.33716H54.0035C53.8291 2.33716 53.6865 2.48931 53.6865 2.67534V4.55076H53.3645C53.218 4.55076 53.0981 4.67859 53.0981 4.83494V6.386C53.0981 6.54231 53.218 6.67011 53.3645 6.67011H53.6865V10.9394C53.6865 12.2236 54.6625 13.2647 55.8666 13.2647H56.6998H56.8971C57.0715 13.2647 57.2141 13.1369 57.2141 12.9806Z" fill="white"/>
<path fill-rule="evenodd" clip-rule="evenodd" d="M65.4829 8.03325V12.9265C65.4829 13.1124 65.3401 13.2647 65.1658 13.2647H63.435C63.2606 13.2647 63.1179 13.1125 63.1179 12.9265V8.03325H63.1139C63.0555 7.26673 62.4519 6.67007 61.7269 6.67007C60.9968 6.67007 60.3935 7.27011 60.336 8.03325V12.9265C60.336 13.1125 60.1933 13.2647 60.0189 13.2647H58.2882C58.1138 13.2647 57.9711 13.1125 57.9711 12.9265V4.88888C57.9711 4.70285 58.1138 4.5507 58.2882 4.5507H60.0189C60.1933 4.5507 60.336 4.70285 60.336 4.88888V5.02126C60.8598 4.6464 61.4871 4.4281 62.1615 4.4281C62.2088 4.4281 62.3997 4.4281 62.4729 4.4281C64.1352 4.43763 65.4829 5.86553 65.4829 7.63874V8.03325Z" fill="white"/>
<path fill-rule="evenodd" clip-rule="evenodd" d="M76.9893 12.9806V11.4295C76.9893 11.2732 76.8466 11.1454 76.6722 11.1454H76.4749C76.1168 11.1454 75.8265 10.8358 75.8265 10.4538V8.62242V6.67011H76.7218C76.8683 6.67011 76.9882 6.54231 76.9882 6.386V4.83494C76.9882 4.67859 76.8683 4.55076 76.7218 4.55076H75.8265V2.67534C75.8265 2.48931 75.6839 2.33716 75.5094 2.33716H73.7787C73.6043 2.33716 73.4617 2.48931 73.4617 2.67534V4.55076H73.1397C72.9931 4.55076 72.8733 4.67859 72.8733 4.83494V6.386C72.8733 6.54231 72.9931 6.67011 73.1397 6.67011H73.4617V10.9394C73.4617 12.2236 74.4377 13.2647 75.6417 13.2647H76.4749H76.6722C76.8466 13.2647 76.9893 13.1369 76.9893 12.9806Z" fill="white"/>
<path fill-rule="evenodd" clip-rule="evenodd" d="M81.1768 4.4281C83.4961 4.4281 85.3764 6.43367 85.3764 8.90772C85.3764 11.3817 83.4961 13.3873 81.1768 13.3873C78.8574 13.3873 76.9772 11.3817 76.9772 8.90772C76.9772 6.43367 78.8574 4.4281 81.1768 4.4281ZM81.1766 6.67007C82.1897 6.67007 83.011 7.67187 83.011 8.90772C83.011 10.1436 82.1897 11.1454 81.1766 11.1454C80.1633 11.1454 79.342 10.1436 79.342 8.90772C79.342 7.67187 80.1633 6.67007 81.1766 6.67007Z" fill="white"/>
<path fill-rule="evenodd" clip-rule="evenodd" d="M94.4558 1.271H96.1859C96.3606 1.271 96.5036 1.42323 96.5036 1.60922V7.39964L98.5946 4.77437C98.7057 4.63737 98.8707 4.55066 99.0533 4.55066H100.821C101.008 4.55066 101.158 4.71208 101.158 4.91123C101.158 5.00299 101.127 5.08674 101.074 5.15044L98.0802 8.90765L101.074 12.6649C101.127 12.7286 101.158 12.8123 101.158 12.9041C101.158 13.1032 101.008 13.2646 100.821 13.2646H99.0533C98.8707 13.2646 98.7057 13.1779 98.5946 13.0409L96.5036 10.4158V12.9264C96.5036 13.1124 96.3606 13.2646 96.1859 13.2646H94.4558C94.2811 13.2646 94.1382 13.1124 94.1382 12.9264V1.60922C94.1382 1.42323 94.2811 1.271 94.4558 1.271Z" fill="white"/>
<path d="M65.8511 10.9507C66.238 12.546 67.6159 13.3966 69.4723 13.3966C71.3893 13.3966 72.9055 12.3862 72.9055 10.5559C72.9055 9.16422 72.1387 8.34453 70.7097 7.9823L69.1586 7.58186C68.7926 7.50563 68.6183 7.37219 68.6183 7.10529C68.6183 6.72405 68.9494 6.53339 69.3503 6.53339C69.8678 6.53339 70.1245 6.75389 70.2474 7.03452L70.2477 7.03527C70.2922 7.14378 70.3936 7.21973 70.5119 7.21973H72.4831C72.6423 7.21973 72.7713 7.08214 72.7713 6.91237C72.7713 6.88329 72.7676 6.85496 72.7603 6.82823C72.4006 5.35765 71.2544 4.43628 69.2806 4.43628C67.4332 4.43628 65.9344 5.50385 65.9344 7.33407C65.9344 8.8402 66.7884 9.52645 68.0955 9.83155L69.6291 10.1747C70.0126 10.27 70.2391 10.3844 70.2391 10.7085C70.2391 11.1089 69.8906 11.2995 69.4374 11.2995C69.0151 11.2995 68.6712 11.0996 68.5071 10.7368C68.4619 10.6302 68.3613 10.5559 68.2444 10.5559H66.1274C65.9682 10.5559 65.8392 10.6935 65.8392 10.8633C65.8392 10.8937 65.8433 10.923 65.8511 10.9507ZM68.5115 10.7477C68.5136 10.7533 68.5155 10.7589 68.5174 10.7646C68.5155 10.7589 68.5136 10.7533 68.5115 10.7477ZM72.7304 6.75445C72.7349 6.76245 72.7391 6.77073 72.7429 6.77911C72.7391 6.77073 72.7349 6.76245 72.7304 6.75445Z" fill="white"/>
<path fill-rule="evenodd" clip-rule="evenodd" d="M89.77 13.3873C91.6634 13.3873 93.263 12.0506 93.787 10.2137V10.2135C93.7994 10.1787 93.8064 10.1409 93.8064 10.1015C93.8064 9.92513 93.6723 9.78218 93.5073 9.78218H93.5047H91.6502H91.6475C91.531 9.78218 91.4314 9.85643 91.3872 9.96287C91.0784 10.6666 90.4697 11.1454 89.7691 11.1454C88.7563 11.1454 87.9349 10.1436 87.9349 8.90772C87.9349 7.67187 88.7563 6.67007 89.7691 6.67007C90.4697 6.67007 91.0784 7.14871 91.3872 7.85256C91.4314 7.959 91.531 8.03325 91.6475 8.03325H91.6502H93.5047H93.5073C93.6723 8.03325 93.8064 7.8903 93.8064 7.71394C93.8064 7.6745 93.7994 7.63677 93.787 7.60185V7.60166C93.263 5.76482 91.6634 4.4281 89.77 4.4281C87.4505 4.4281 85.57 6.43367 85.5699 8.90772C85.57 11.3818 87.4505 13.3873 89.77 13.3873Z" fill="white"/>
<path fill-rule="evenodd" clip-rule="evenodd" d="M101.908 1.271C102.323 1.271 102.658 1.64157 102.658 2.09866C102.658 2.55575 102.323 2.92633 101.908 2.92633C101.495 2.92633 101.158 2.55575 101.158 2.09866C101.158 1.64157 101.495 1.271 101.908 1.271ZM102.36 1.59415C102.245 1.46668 102.085 1.3878 101.908 1.3878C101.732 1.3878 101.572 1.46668 101.458 1.59415C101.34 1.72287 101.269 1.90127 101.269 2.09866C101.269 2.29606 101.34 2.47445 101.458 2.60317C101.572 2.73064 101.732 2.80952 101.908 2.80952C102.085 2.80952 102.245 2.73064 102.36 2.60317C102.477 2.47445 102.549 2.29606 102.549 2.09866C102.549 1.90127 102.477 1.72287 102.36 1.59415Z" fill="white"/>
<path d="M101.926 1.68213C101.986 1.68213 102.037 1.69171 102.08 1.71086C102.122 1.72979 102.154 1.75813 102.177 1.79543C102.199 1.83292 102.21 1.87902 102.21 1.93349C102.21 1.9755 102.202 2.01222 102.188 2.04387C102.174 2.07548 102.154 2.10204 102.127 2.12372C102.101 2.14521 102.07 2.1618 102.035 2.17371L101.992 2.19657H101.745L101.744 2.07821H101.928C101.96 2.07821 101.986 2.07236 102.007 2.06046C102.028 2.04854 102.044 2.03235 102.055 2.01182C102.065 1.99131 102.071 1.96786 102.071 1.94151C102.071 1.89872 102.059 1.86458 102.036 1.83935C102.013 1.81396 101.976 1.80127 101.926 1.80127H101.788V2.51532H101.649V1.68213H101.926ZM101.91 2.14171L102.056 2.14113L102.241 2.50788V2.51532H102.093L101.91 2.14171Z" fill="white"/>
</svg>
