<svg width="50" height="50" viewBox="0 0 50 50" fill="none" xmlns="http://www.w3.org/2000/svg">
<path fill-rule="evenodd" clip-rule="evenodd" d="M26.4907 13V14.5H34.45C35.8583 14.5 37 15.6417 37 17.05V25.45C37 26.8583 35.8583 28 34.45 28H29.4789L30.9731 37H29.4848L28.7365 32.5H21.2665L20.5199 37H19.0317L20.5258 28H15.55C14.1417 28 13 26.8583 13 25.45V17.05C13 15.6417 14.1417 14.5 15.55 14.5H23.5141V13H26.4907ZM27.9907 28H26.4965V31H28.4875L27.9907 28ZM23.5082 28H22.0141L21.5155 31H23.5082V28ZM22.7616 18.9823C22.0428 18.982 21.3783 19.3659 21.0175 19.99L17.5317 25H27.9907L24.5048 19.9915C24.1445 19.3671 23.4803 18.9826 22.7616 18.9823ZM30.25 22C29.3846 20.7567 27.9807 20.1985 26.5 20.5C27.0648 20.953 28.9651 24.5665 29.5 25H32.4731L30.25 22Z" fill="#888888"/>
<path d="M10 0.5H40C45.2467 0.5 49.5 4.75329 49.5 10V40C49.5 45.2467 45.2467 49.5 40 49.5H10C4.75329 49.5 0.5 45.2467 0.5 40V10C0.5 4.75329 4.75329 0.5 10 0.5Z" stroke="#D6D6D6"/>
</svg>
