<svg width="50" height="50" viewBox="0 0 50 50" fill="none" xmlns="http://www.w3.org/2000/svg">
<path fill-rule="evenodd" clip-rule="evenodd" d="M27.7545 15C28.4179 15.3932 29.0066 15.9006 29.4935 16.4988L30.9914 19.4963H33.9871C34.8064 19.404 35.6231 19.69 36.2062 20.2734C36.7892 20.8568 37.075 21.674 36.9828 22.4938V32.9852C37.0756 33.8052 36.7899 34.6228 36.2068 35.2063C35.6236 35.7898 34.8065 36.0756 33.9871 35.9828H16.0129C15.1935 36.0756 14.3764 35.7898 13.7932 35.2063C13.2101 34.6228 12.9244 33.8052 13.0172 32.9852V22.4938C12.925 21.674 13.2108 20.8568 13.7938 20.2734C14.3769 19.69 15.1936 19.404 16.0129 19.4963H19.0086L20.5065 16.4988C20.9119 15.9133 21.4192 15.4057 22.0043 15H27.7545ZM25 22.4938C22.5183 22.4938 20.5065 24.5069 20.5065 26.9902C20.5065 29.4734 22.5183 31.4865 25 31.4865C27.4817 31.4865 29.4935 29.4734 29.4935 26.9902C29.4935 24.5069 27.4817 22.4938 25 22.4938Z" fill="#888888"/>
<path d="M10 0.5H40C45.2467 0.5 49.5 4.75329 49.5 10V40C49.5 45.2467 45.2467 49.5 40 49.5H10C4.75329 49.5 0.5 45.2467 0.5 40V10C0.5 4.75329 4.75329 0.5 10 0.5Z" stroke="#D6D6D6"/>
</svg>
