<svg width="50" height="50" viewBox="0 0 50 50" fill="none" xmlns="http://www.w3.org/2000/svg">
<path d="M37 34C37 35.6569 35.6569 37 34 37H16C14.3431 37 13 35.6569 13 34V19H37V34ZM23.5 28H19V31C19 31.8284 19.6716 32.5 20.5 32.5H23.5V28ZM31 28H25V32.5H29.5C30.3284 32.5 31 31.8284 31 31V28ZM29.5 22H20.5C19.6716 22 19 22.6716 19 23.5V26.5H31V23.5C31 22.6716 30.3284 22 29.5 22ZM15.25 14.5C14.8358 14.5 14.5 14.8358 14.5 15.25C14.5 15.6642 14.8358 16 15.25 16C15.6642 16 16 15.6642 16 15.25C16 14.8358 15.6642 14.5 15.25 14.5ZM18.25 14.5C17.8358 14.5 17.5 14.8358 17.5 15.25C17.5 15.6642 17.8358 16 18.25 16C18.6642 16 19 15.6642 19 15.25C19 14.8358 18.6642 14.5 18.25 14.5ZM21.25 14.5C20.8358 14.5 20.5 14.8358 20.5 15.25C20.5 15.6642 20.8358 16 21.25 16C21.6642 16 22 15.6642 22 15.25C22 14.8358 21.6642 14.5 21.25 14.5ZM13 16C13 14.3431 14.3431 13 16 13H34C35.6569 13 37 14.3431 37 16V17.5H13V16Z" fill="#888888"/>
<path d="M10 0.5H40C45.2467 0.5 49.5 4.75329 49.5 10V40C49.5 45.2467 45.2467 49.5 40 49.5H10C4.75329 49.5 0.5 45.2467 0.5 40V10C0.5 4.75329 4.75329 0.5 10 0.5Z" stroke="#D6D6D6"/>
</svg>
