<svg width="50" height="50" viewBox="0 0 50 50" fill="none" xmlns="http://www.w3.org/2000/svg">
<path d="M10 0.5H40C45.2467 0.5 49.5 4.75329 49.5 10V40C49.5 45.2467 45.2467 49.5 40 49.5H10C4.75329 49.5 0.5 45.2467 0.5 40V10C0.5 4.75329 4.75329 0.5 10 0.5Z" stroke="#D6D6D6"/>
<path d="M13 15C13 13.8954 13.8954 13 15 13H35C36.1046 13 37 13.8954 37 15V35C37 36.1046 36.1046 37 35 37H15C13.8954 37 13 36.1046 13 35V15Z" fill="#888888"/>
<path d="M23.4999 15.0891H21.5C21.2238 15.0891 21 15.3129 21 15.5891V17.7257C21 18.0018 21.2238 18.2257 21.5 18.2257H23.4999C23.7761 18.2257 23.9999 18.0018 23.9999 17.7257V15.5891C23.9999 15.3129 23.7761 15.0891 23.4999 15.0891Z" fill="white"/>
<path d="M16.5 34.909H18.5C18.7761 34.909 19 34.6851 19 34.409V32.2723C19 31.9962 18.7761 31.7723 18.5 31.7723H16.5C16.2239 31.7723 16 31.9962 16 32.2723V34.409C16 34.6851 16.2239 34.909 16.5 34.909Z" fill="white"/>
<path d="M16.5 18.2257H18.5C18.7761 18.2257 19 18.0018 19 17.7257V15.5891C19 15.3129 18.7761 15.0891 18.5 15.0891H16.5C16.2239 15.0891 16 15.3129 16 15.5891V17.7257C16 18.0018 16.2239 18.2257 16.5 18.2257Z" fill="white"/>
<path d="M21.5 34.909H23.4999C23.7761 34.909 23.9999 34.6851 23.9999 34.409V32.2723C23.9999 31.9962 23.7761 31.7723 23.4999 31.7723H21.5C21.2238 31.7723 21 31.9962 21 32.2723V34.409C21 34.6851 21.2238 34.909 21.5 34.909Z" fill="white"/>
<path d="M26.4999 34.909H28.4999C28.776 34.909 28.9999 34.6851 28.9999 34.409V32.2723C28.9999 31.9962 28.776 31.7723 28.4999 31.7723H26.4999C26.2238 31.7723 25.9999 31.9962 25.9999 32.2723V34.409C25.9999 34.6851 26.2238 34.909 26.4999 34.909Z" fill="white"/>
<path d="M26.4999 18.2257H28.4999C28.776 18.2257 28.9999 18.0018 28.9999 17.7257V15.5891C28.9999 15.3129 28.776 15.0891 28.4999 15.0891H26.4999C26.2238 15.0891 25.9999 15.3129 25.9999 15.5891V17.7257C25.9999 18.0018 26.2238 18.2257 26.4999 18.2257Z" fill="white"/>
<path d="M31.4999 34.909H33.4998C33.776 34.909 33.9998 34.6851 33.9998 34.409V32.2723C33.9998 31.9962 33.776 31.7723 33.4998 31.7723H31.4999C31.2237 31.7723 30.9999 31.9962 30.9999 32.2723V34.409C30.9999 34.6851 31.2237 34.909 31.4999 34.909Z" fill="white"/>
<path d="M31.4999 18.2257H33.4998C33.776 18.2257 33.9998 18.0018 33.9998 17.7257V15.5891C33.9998 15.3129 33.776 15.0891 33.4998 15.0891H31.4999C31.2237 15.0891 30.9999 15.3129 30.9999 15.5891V17.7257C30.9999 18.0018 31.2237 18.2257 31.4999 18.2257Z" fill="white"/>
<path d="M21.64 20.9999V28.9999C21.64 29.5522 22.0877 29.9999 22.64 29.9999H23.0193C23.4324 29.9999 23.8353 29.872 24.1728 29.6338L28.5086 26.5728C29.0174 26.2136 29.32 25.6295 29.32 25.0067C29.32 24.3763 29.0102 23.7863 28.4912 23.4284L24.0319 20.3534C23.6981 20.1232 23.3021 19.9999 22.8966 19.9999H22.64C22.0877 19.9999 21.64 20.4477 21.64 20.9999Z" fill="white"/>
</svg>
