<svg width="150" height="26" viewBox="0 0 150 26" fill="none" xmlns="http://www.w3.org/2000/svg">
<path fill-rule="evenodd" clip-rule="evenodd" d="M29.9169 7.88123C34.5285 7.88123 38.2669 11.6196 38.2669 16.2311C38.2669 20.8427 34.5285 24.5811 29.9169 24.5811C25.3054 24.5811 21.567 20.8427 21.567 16.2311C21.567 11.6196 25.3054 7.88123 29.9169 7.88123ZM30.2071 12.0602C32.3813 12.0602 34.1439 13.9276 34.1439 16.2311C34.1439 18.5347 32.3813 20.4021 30.2071 20.4021C28.0328 20.4021 26.2702 18.5347 26.2702 16.2311C26.2702 13.9276 28.0328 12.0602 30.2071 12.0602Z" fill="#43403E"/>
<path d="M38.2879 8.10974H34.8469C34.4987 8.10974 34.2164 8.39203 34.2164 8.74025V23.722C34.2164 24.0702 34.4987 24.3525 34.8469 24.3525H38.2879C38.6361 24.3525 38.9184 24.0702 38.9184 23.722V8.74025C38.9184 8.39203 38.6361 8.10974 38.2879 8.10974Z" fill="#43403E"/>
<path fill-rule="evenodd" clip-rule="evenodd" d="M44.3411 8.10974H40.8999C40.5531 8.10974 40.2695 8.39336 40.2695 8.74018V23.7221C40.2695 24.0689 40.5531 24.3525 40.8999 24.3525H44.3411C44.6879 24.3525 44.9715 24.0689 44.9715 23.7221V15.4025C45.2417 13.5085 46.7848 12.0568 48.6479 12.0568C48.9301 12.0568 49.205 12.0902 49.4692 12.1533C49.7845 12.2052 50.0603 11.8882 50.0603 11.5617V8.7113C50.0603 8.4398 49.8567 8.16432 49.628 8.14131C49.3954 8.12056 49.16 8.10974 48.9218 8.10974C47.4824 8.10974 46.1331 8.49576 44.9715 9.16938V8.74018C44.9715 8.39336 44.6879 8.10974 44.3411 8.10974Z" fill="#43403E"/>
<path fill-rule="evenodd" clip-rule="evenodd" d="M58.7517 23.823V20.9317C58.7517 20.6404 58.4682 20.4021 58.1214 20.4021H57.7292C57.0171 20.4021 56.44 19.825 56.44 19.1129V15.6994V12.0602H58.22C58.5114 12.0602 58.7496 11.822 58.7496 11.5306V8.6395C58.7496 8.34804 58.5114 8.10978 58.22 8.10978H56.44V4.61401C56.44 4.26726 56.1564 3.98364 55.8096 3.98364H52.3684C52.0216 3.98364 51.738 4.26726 51.738 4.61401V8.10978H51.0977C50.8064 8.10978 50.5681 8.34804 50.5681 8.6395V11.5306C50.5681 11.822 50.8064 12.0602 51.0977 12.0602H51.738V20.0182C51.738 22.412 53.6785 24.3526 56.0724 24.3526H57.7292H58.1214C58.4682 24.3526 58.7517 24.1143 58.7517 23.823Z" fill="#43403E"/>
<path fill-rule="evenodd" clip-rule="evenodd" d="M75.192 14.6011V23.7222C75.192 24.0688 74.9082 24.3525 74.5615 24.3525H71.1204C70.7736 24.3525 70.49 24.0689 70.49 23.7222V14.6011H70.4818C70.3657 13.1724 69.1657 12.0602 67.7243 12.0602C66.2726 12.0602 65.0732 13.1788 64.9587 14.6011V23.7222C64.9587 24.0689 64.6752 24.3525 64.3284 24.3525H60.8872C60.5404 24.3525 60.2567 24.0689 60.2567 23.7222V8.74012C60.2567 8.39337 60.5404 8.10976 60.8872 8.10976H64.3284C64.6752 8.10976 64.9587 8.39337 64.9587 8.74012V8.98687C66.0003 8.28814 67.2475 7.88123 68.5883 7.88123C68.6824 7.88123 69.0618 7.88123 69.2074 7.88123C72.5126 7.89901 75.192 10.5605 75.192 13.8658V14.6011Z" fill="#43403E"/>
<path fill-rule="evenodd" clip-rule="evenodd" d="M98.0698 23.823V20.9317C98.0698 20.6404 97.7862 20.4021 97.4394 20.4021H97.0472C96.3351 20.4021 95.758 19.825 95.758 19.1129V15.6994V12.0602H97.538C97.8294 12.0602 98.0677 11.822 98.0677 11.5306V8.6395C98.0677 8.34804 97.8294 8.10978 97.538 8.10978H95.758V4.61401C95.758 4.26726 95.4744 3.98364 95.1275 3.98364H91.6863C91.3396 3.98364 91.056 4.26726 91.056 4.61401V8.10978H90.4157C90.1244 8.10978 89.8861 8.34804 89.8861 8.6395V11.5306C89.8861 11.822 90.1244 12.0602 90.4157 12.0602H91.056V20.0182C91.056 22.412 92.9965 24.3526 95.3904 24.3526H97.0472H97.4394C97.7862 24.3526 98.0698 24.1143 98.0698 23.823Z" fill="#43403E"/>
<path fill-rule="evenodd" clip-rule="evenodd" d="M106.396 7.88123C111.007 7.88123 114.746 11.6196 114.746 16.2313C114.746 20.8427 111.007 24.5811 106.396 24.5811C101.784 24.5811 98.0459 20.8427 98.0459 16.2313C98.0459 11.6196 101.784 7.88123 106.396 7.88123ZM106.395 12.0602C108.41 12.0602 110.043 13.9276 110.043 16.2311C110.043 18.5347 108.41 20.4021 106.395 20.4021C104.381 20.4021 102.748 18.5347 102.748 16.2311C102.748 13.9276 104.381 12.0602 106.395 12.0602Z" fill="#43403E"/>
<path fill-rule="evenodd" clip-rule="evenodd" d="M132.797 1.99646H136.238C136.585 1.99646 136.869 2.28022 136.869 2.6269V13.4202L141.027 8.52673C141.248 8.27134 141.575 8.10972 141.94 8.10972H145.453C145.824 8.10972 146.125 8.41061 146.125 8.78182C146.125 8.95288 146.061 9.10898 145.956 9.22771L140.004 16.2312L145.956 23.2345C146.061 23.3533 146.125 23.5094 146.125 23.6804C146.125 24.0516 145.824 24.3525 145.453 24.3525H141.94C141.575 24.3525 141.248 24.1908 141.027 23.9355L136.869 19.0421V23.7221C136.869 24.0688 136.585 24.3525 136.238 24.3525H132.797C132.45 24.3525 132.167 24.0688 132.167 23.7221V2.6269C132.167 2.28022 132.45 1.99646 132.797 1.99646Z" fill="#43403E"/>
<path d="M75.9243 20.0395C76.6937 23.0129 79.4331 24.5986 83.1242 24.5986C86.9357 24.5986 89.9502 22.7152 89.9502 19.3036C89.9502 16.7095 88.4256 15.1815 85.5843 14.5063L82.5005 13.76C81.7728 13.6179 81.4263 13.3692 81.4263 12.8716C81.4263 12.1609 82.0846 11.8055 82.8815 11.8055C83.9105 11.8055 84.4208 12.2166 84.6652 12.7397L84.6659 12.7411C84.7544 12.9434 84.9561 13.0849 85.191 13.0849H89.1106C89.427 13.0849 89.6834 12.8285 89.6834 12.512C89.6834 12.4578 89.676 12.405 89.6617 12.3551C88.9465 9.61405 86.6674 7.89661 82.7429 7.89661C79.07 7.89661 76.09 9.88656 76.09 13.2981C76.09 16.1054 77.7879 17.3847 80.3867 17.9533L83.436 18.5929C84.1983 18.7706 84.6487 18.9839 84.6487 19.588C84.6487 20.3342 83.9557 20.6896 83.0549 20.6896C82.2152 20.6896 81.5313 20.3169 81.2051 19.6407C81.1152 19.442 80.9152 19.3036 80.6829 19.3036H76.4736C76.1572 19.3036 75.9008 19.56 75.9008 19.8765C75.9008 19.9331 75.9088 19.9878 75.9243 20.0395ZM81.2139 19.6611C81.2181 19.6714 81.222 19.6819 81.2256 19.6925C81.222 19.682 81.2181 19.6714 81.2139 19.6611ZM89.6022 12.2177C89.6111 12.2326 89.6193 12.2479 89.6269 12.2637C89.6193 12.248 89.6111 12.2326 89.6022 12.2177Z" fill="#43403E"/>
<path fill-rule="evenodd" clip-rule="evenodd" d="M123.481 24.5811C127.245 24.5811 130.427 22.0894 131.469 18.6655L131.469 18.6652C131.494 18.6002 131.507 18.5299 131.507 18.4564C131.507 18.1276 131.24 17.8611 130.912 17.8611L130.907 17.8612H127.219L127.214 17.8611C126.983 17.8611 126.785 17.9996 126.697 18.1979C126.083 19.5098 124.873 20.4021 123.48 20.4021C121.466 20.4021 119.833 18.5347 119.833 16.2312C119.833 13.9276 121.466 12.0602 123.48 12.0602C124.873 12.0602 126.083 12.9525 126.697 14.2644C126.785 14.4627 126.983 14.6012 127.214 14.6012L127.219 14.6011H130.907L130.912 14.6012C131.24 14.6012 131.507 14.3347 131.507 14.006C131.507 13.9324 131.494 13.8621 131.469 13.7971L131.469 13.7968C130.427 10.3729 127.245 7.88123 123.481 7.88123C118.869 7.88123 115.131 11.6196 115.131 16.2312C115.131 20.8428 118.869 24.5811 123.481 24.5811Z" fill="#43403E"/>
<path fill-rule="evenodd" clip-rule="evenodd" d="M10.3983 20.4761L10.3994 20.4751C10.8125 18.8725 11.5853 17.5209 12.5768 16.6224C11.2401 16.6881 9.73778 16.2786 8.3123 15.4374C7.56973 15.8756 6.84791 16.4308 6.18148 17.0973C5.23875 18.04 4.51854 19.0932 4.0376 20.1598C5.13171 20.5737 6.38577 20.8088 7.71872 20.8088C8.66108 20.8088 9.56367 20.6912 10.3983 20.4761Z" fill="#E52141"/>
<path fill-rule="evenodd" clip-rule="evenodd" d="M5.12115 25.7528L10.3994 20.4751C9.56466 20.6901 8.66207 20.8078 7.71978 20.8078C6.38676 20.8078 5.13277 20.5726 4.03858 20.1588C3.14216 22.1466 3.07764 24.1806 3.95832 25.6321C4.17785 26.0709 4.80713 26.1247 5.12115 25.7528Z" fill="#E93F8F"/>
<path fill-rule="evenodd" clip-rule="evenodd" d="M12.5768 16.6224C13.4051 15.8717 14.3861 15.4374 15.4377 15.4374C14.6941 16.181 13.6932 16.5674 12.5768 16.6224Z" fill="#B52728"/>
<path fill-rule="evenodd" clip-rule="evenodd" d="M20.4764 10.3986L20.4754 10.3996C18.8727 10.8127 17.5211 11.5855 16.6226 12.5771C16.6883 11.2404 16.2789 9.73796 15.4376 8.31255C15.8759 7.56991 16.4311 6.84817 17.0975 6.18173C18.0402 5.23901 19.0936 4.51879 20.16 4.03778C20.574 5.13196 20.8091 6.38595 20.8091 7.71897C20.8091 8.66126 20.6915 9.56385 20.4764 10.3986Z" fill="#04A34D"/>
<path fill-rule="evenodd" clip-rule="evenodd" d="M25.7539 5.12031L20.4763 10.3985C20.6914 9.56381 20.809 8.66122 20.809 7.71893C20.809 6.38591 20.5739 5.13192 20.1599 4.03774C22.1478 3.14132 24.1818 3.0768 25.6334 3.9574C26.0721 4.177 26.1259 4.80629 25.7539 5.12031Z" fill="#48BED8"/>
<path fill-rule="evenodd" clip-rule="evenodd" d="M10.3992 20.4759C10.8123 18.8729 11.5852 17.5208 12.577 16.6221C13.6933 16.567 14.6942 16.1809 15.4377 15.4374L10.3992 20.4759Z" fill="#D52427"/>
<path fill-rule="evenodd" clip-rule="evenodd" d="M20.4763 10.3989C18.8733 10.8119 17.5212 11.5849 16.6225 12.5767C16.5674 13.693 16.1813 14.6938 15.4377 15.4374L20.4763 10.3989Z" fill="#038A41"/>
<path fill-rule="evenodd" clip-rule="evenodd" d="M16.6227 12.5764C15.8721 13.4047 15.4377 14.3857 15.4377 15.4373C16.1814 14.6937 16.5678 13.6928 16.6227 12.5764Z" fill="#20743B"/>
<path fill-rule="evenodd" clip-rule="evenodd" d="M0 15.4376C0 13.3988 1.63246 11.6252 4.03746 10.7155C4.5184 11.7818 5.23898 12.835 6.18163 13.7777C6.84814 14.4442 7.56988 14.9994 8.31252 15.4376C7.56995 15.8758 6.84814 16.4312 6.1817 17.0976C5.23898 18.0403 4.51876 19.0936 4.03782 20.1601C1.63261 19.2503 0 17.4767 0 15.4376Z" fill="#ED7872"/>
<path fill-rule="evenodd" clip-rule="evenodd" d="M15.4376 15.4374C14.3863 15.4374 13.4056 15.0029 12.5774 14.2526C13.6936 14.3078 14.6942 14.6939 15.4376 15.4374Z" fill="#A62927"/>
<path fill-rule="evenodd" clip-rule="evenodd" d="M10.7151 4.03644L10.7173 4.03738L10.718 4.03775C10.7701 4.06133 10.8223 4.08543 10.8743 4.1101L10.8811 4.11329C10.93 4.13659 10.979 4.16039 11.0279 4.18463L11.0463 4.19392C11.0946 4.21794 11.1428 4.24247 11.1909 4.26751L11.1995 4.27201C11.2501 4.29843 11.3007 4.32535 11.351 4.35286L11.3566 4.35583C11.4081 4.38399 11.4596 4.41266 11.5109 4.44183L11.5125 4.44277L11.5138 4.44343C11.5661 4.47318 11.6182 4.50352 11.6701 4.53444C11.7207 4.56448 11.7711 4.59496 11.8215 4.62609L11.8331 4.63335C11.8818 4.66347 11.9303 4.69424 11.9788 4.72538L11.9875 4.73089C12.0359 4.7621 12.0842 4.79396 12.1324 4.82618L12.139 4.83053L12.1475 4.83627C12.1954 4.86842 12.2432 4.90093 12.2907 4.93409L12.2927 4.93547L12.2937 4.93613L12.2974 4.93874C12.3462 4.97285 12.395 5.00739 12.4436 5.04252L12.453 5.04934C12.501 5.08403 12.5486 5.11916 12.5962 5.15486L12.605 5.16147C12.7029 5.23505 12.8001 5.31075 12.8966 5.38855L12.9024 5.39319L12.9111 5.40038C12.958 5.43833 13.0047 5.47665 13.0512 5.51562L13.0517 5.51599C13.098 5.55481 13.1441 5.59415 13.1901 5.63392L13.1997 5.64219L13.2062 5.648C13.2523 5.68813 13.2983 5.7287 13.344 5.76977L13.3488 5.77406C13.396 5.81658 13.443 5.85955 13.4898 5.90309L13.4933 5.90643C13.5396 5.94961 13.5859 5.99337 13.6316 6.03757L13.6378 6.04359C13.6846 6.08873 13.7311 6.13445 13.7774 6.18068C14.4438 6.84712 14.9991 7.56893 15.4373 8.3115C14.5959 9.73719 14.1867 11.2397 14.2526 12.5765C13.354 11.5846 12.0019 10.8117 10.3989 10.3986C10.1837 9.56353 10.0659 8.6605 10.0659 7.71793C10.0659 6.3849 10.3012 5.13062 10.7151 4.03644Z" fill="#B6BA24"/>
<path fill-rule="evenodd" clip-rule="evenodd" d="M4.52076 4.52105C5.96242 3.07938 8.37083 2.97952 10.7148 4.03677C10.3008 5.13102 10.0656 6.38523 10.0656 7.71833C10.0656 8.66091 10.1834 9.56386 10.3986 10.3989C9.56372 10.1836 8.66062 10.0659 7.71811 10.0659C6.38494 10.0659 5.13088 10.3014 4.03662 10.7154C2.97916 8.37141 3.07888 5.96286 4.52076 4.52105Z" fill="#FDD347"/>
<path fill-rule="evenodd" clip-rule="evenodd" d="M15.4376 0C17.4764 0 19.25 1.63239 20.1597 4.03738C19.0934 4.5184 18.0402 5.23898 17.0975 6.18163C16.431 6.84814 15.8758 7.56988 15.4376 8.31252C14.9994 7.56995 14.444 6.84814 13.7776 6.1817C12.8349 5.23898 11.7816 4.51876 10.7151 4.03775C11.6249 1.63253 13.3985 0 15.4376 0Z" fill="#B4CF55"/>
<path fill-rule="evenodd" clip-rule="evenodd" d="M10.3992 10.399C12.0022 10.8121 13.3543 11.585 14.2529 12.5769C14.308 13.6932 14.6942 14.6939 15.4376 15.4374C14.6941 14.6938 13.6933 14.3077 12.577 14.2526C11.5852 13.3539 10.8123 12.002 10.3992 10.399Z" fill="#BB5829"/>
<path fill-rule="evenodd" clip-rule="evenodd" d="M15.4376 8.31195C16.279 9.73758 16.6885 11.2402 16.6225 12.577C15.8721 13.4052 15.4376 14.386 15.4376 15.4373C15.4376 14.3858 15.003 13.4051 14.2526 12.5769C14.1868 11.2401 14.5961 9.73758 15.4376 8.31195Z" fill="#009843"/>
<path fill-rule="evenodd" clip-rule="evenodd" d="M10.3986 10.3988L10.3997 10.3998C10.8127 12.0024 11.5856 13.354 12.5771 14.2526C11.2404 14.1868 9.73794 14.5963 8.31254 15.4375C7.5699 14.9993 6.84816 14.4441 6.18172 13.7776C5.239 12.8349 4.51878 11.7817 4.03784 10.7151C5.13195 10.3012 6.38602 10.066 7.71896 10.066C8.66125 10.066 9.56392 10.1837 10.3986 10.3988Z" fill="#EB5F25"/>
<path fill-rule="evenodd" clip-rule="evenodd" d="M8.31226 15.4374C9.73788 14.5961 11.2405 14.1865 12.5773 14.2524C13.4055 15.0028 14.3863 15.4374 15.4376 15.4374C14.3861 15.4374 13.4055 15.872 12.5772 16.6224C11.2404 16.6883 9.73788 16.2788 8.31226 15.4374Z" fill="#DF2125"/>
<path fill-rule="evenodd" clip-rule="evenodd" d="M14.2526 12.5764C15.0032 13.4047 15.4376 14.3857 15.4376 15.4373C14.694 14.6937 14.3075 13.6928 14.2526 12.5764Z" fill="#52562C"/>
<path fill-rule="evenodd" clip-rule="evenodd" d="M147.616 1.99646C148.439 1.99646 149.107 2.68721 149.107 3.53922C149.107 4.39122 148.439 5.08197 147.616 5.08197C146.793 5.08197 146.125 4.39122 146.125 3.53922C146.125 2.68721 146.793 1.99646 147.616 1.99646ZM148.513 2.59882C148.284 2.36121 147.966 2.21418 147.616 2.21418C147.265 2.21418 146.948 2.36121 146.718 2.59882C146.487 2.83874 146.343 3.17127 146.343 3.53922C146.343 3.90716 146.487 4.23969 146.718 4.47962C146.948 4.71722 147.265 4.86426 147.616 4.86426C147.966 4.86426 148.284 4.71722 148.513 4.47962C148.745 4.23969 148.889 3.90716 148.889 3.53922C148.889 3.17127 148.745 2.83874 148.513 2.59882Z" fill="#43403E"/>
<path d="M147.652 2.7627C147.771 2.7627 147.872 2.78055 147.955 2.81626C148.04 2.85153 148.104 2.90436 148.148 2.97388C148.192 3.04377 148.215 3.1297 148.215 3.23123C148.215 3.30953 148.2 3.37797 148.172 3.43697C148.144 3.4959 148.103 3.5454 148.051 3.58582C147.999 3.62588 147.937 3.6568 147.866 3.679L147.783 3.7216H147.291L147.289 3.50098H147.654C147.717 3.50098 147.77 3.4901 147.812 3.46789C147.855 3.44568 147.886 3.41549 147.907 3.37725C147.928 3.339 147.938 3.29531 147.938 3.24618C147.938 3.16642 147.915 3.10277 147.87 3.05575C147.824 3.00843 147.751 2.98477 147.652 2.98477H147.376V4.31576H147.1V2.7627H147.652ZM147.619 3.61935L147.909 3.61826L148.277 4.3019V4.31576H147.982L147.619 3.61935Z" fill="#43403E"/>
</svg>
