<svg width="22" height="22" viewBox="0 0 22 22" fill="none" xmlns="http://www.w3.org/2000/svg">
<path fill-rule="evenodd" clip-rule="evenodd" d="M7.24234 16.576C7.94218 18.866 9.03295 20.585 10.2787 21.076V16.127C9.25401 16.1738 8.2367 16.3242 7.24234 16.576ZM11.7213 11.727V14.667C12.8687 14.7156 14.0078 14.8832 15.1206 15.167C15.3592 14.0352 15.5 12.885 15.5415 11.729H11.7263L11.7213 11.727ZM11.7213 0.926998V5.872C12.7443 5.82661 13.76 5.67717 14.7527 5.426C14.0558 3.135 12.966 1.418 11.7213 0.928001V0.926998ZM15.1206 6.839C14.0075 7.12025 12.8684 7.28547 11.7213 7.332V10.26H15.5365C15.4953 9.10997 15.3544 7.96568 15.1155 6.84L15.1206 6.839ZM7.24734 5.426C8.24171 5.67724 9.25907 5.82668 10.2837 5.872V0.928001C9.03296 1.418 7.93918 3.135 7.24234 5.427L7.24734 5.426ZM6.46453 11.726C6.50514 12.882 6.64562 14.0323 6.88442 15.164C7.99722 14.8805 9.13639 14.7129 10.2837 14.664V11.724H6.46453V11.726ZM6.88442 6.839C6.6453 7.96496 6.50482 9.10962 6.46453 10.26H10.2837V7.333C9.13502 7.28602 7.99425 7.12081 6.87945 6.84L6.88442 6.839ZM11.7263 16.126V21.073C12.9711 20.584 14.0608 18.864 14.7576 16.573C13.7632 16.322 12.7459 16.1726 11.7213 16.127L11.7263 16.126ZM16.9801 11.726C16.9403 13.0232 16.781 14.314 16.5042 15.582C17.7639 16.0192 18.9668 16.6053 20.0874 17.328C21.2134 15.6656 21.8737 13.732 22 11.728H16.9801V11.726ZM5.87266 16.993C4.80023 17.3727 3.77348 17.8708 2.81137 18.478C4.42578 20.306 6.6022 21.5451 8.99795 22C7.44806 20.707 6.35137 18.9528 5.86765 16.993H5.87266ZM16.1323 16.993C15.6474 18.9535 14.5489 20.7078 12.997 22C15.3945 21.5454 17.5725 20.3055 19.1876 18.476C18.2257 17.8695 17.1993 17.3721 16.1273 16.993H16.1323ZM20.0874 4.672C18.9667 5.39523 17.7638 5.98237 16.5042 6.421C16.7815 7.68349 16.9408 8.96902 16.9801 10.261H21.995C21.8694 8.26031 21.2088 6.33008 20.0824 4.672H20.0874ZM1.91756 4.672C0.789398 6.32957 0.127133 8.25983 0 10.261H5.01985C5.05922 8.96902 5.21855 7.68349 5.49576 6.421C4.23617 5.98237 3.03329 5.39523 1.91256 4.672H1.91756ZM5.02486 11.726H0C0.126269 13.73 0.786649 15.6636 1.91256 17.326C3.0331 16.6035 4.23606 16.0176 5.49576 15.581C5.21916 14.3137 5.05985 13.0236 5.01985 11.727L5.02486 11.726ZM2.81137 3.526C3.77419 4.13275 4.80077 4.63175 5.87266 5.014C6.35235 3.05172 7.44759 1.29461 8.99795 0C6.60021 0.453385 4.42173 1.69259 2.80637 3.522L2.81137 3.526ZM12.997 0C14.5479 1.29255 15.6448 3.04738 16.1273 5.008C17.1988 4.62554 18.225 4.12655 19.1876 3.52C17.5722 1.69152 15.3942 0.453056 12.997 0Z" fill="#888888"/>
</svg>
